<?xml version="1.0" encoding="UTF-8"?>
<svg version="1.1" xmlns="http://www.w3.org/2000/svg" width="128" height="128">
<path d="M0 0 C0.74958984 0.01353516 1.49917969 0.02707031 2.27148438 0.04101562 C4.11879767 0.07631461 5.96574066 0.13012083 7.8125 0.1875 C7.8125 1.5075 7.8125 2.8275 7.8125 4.1875 C1.3775 4.6825 1.3775 4.6825 -5.1875 5.1875 C-5.5175 37.8575 -5.8475 70.5275 -6.1875 104.1875 C-4.2075 104.1875 -2.2275 104.1875 -0.1875 104.1875 C-0.19638245 103.18160828 -0.20526489 102.17571655 -0.2144165 101.13934326 C-0.29547519 91.66345573 -0.3554523 82.18763847 -0.39474869 72.711483 C-0.41563056 67.83957224 -0.44395914 62.96794118 -0.48925781 58.09619141 C-0.53269419 53.39535012 -0.55663259 48.69477799 -0.56700897 43.99375153 C-0.57440432 42.19955456 -0.58884567 40.40537246 -0.61042023 38.61128998 C-0.63942537 36.09958472 -0.64345729 33.58899401 -0.64160156 31.07714844 C-0.65598267 30.33411972 -0.67036377 29.591091 -0.68518066 28.82554626 C-0.65829634 25.46640959 -0.44842237 23.54234207 1.5657959 20.80310059 C3.80109694 19.19569992 5.59941431 18.27871545 8.21386719 17.44824219 C9.0744574 17.16825378 9.93504761 16.88826538 10.82171631 16.59979248 C12.20160736 16.17141083 12.20160736 16.17141083 13.609375 15.734375 C14.55814514 15.42929016 15.50691528 15.12420532 16.48443604 14.80987549 C19.50691434 13.84087797 22.53447739 12.88901321 25.5625 11.9375 C27.61624412 11.28237343 29.66963427 10.62613609 31.72265625 9.96875 C36.74805329 8.35997293 41.77997048 6.77448654 46.8125 5.1875 C35.5925 4.8575 24.3725 4.5275 12.8125 4.1875 C12.8125 2.8675 12.8125 1.5475 12.8125 0.1875 C19.87826669 0.11154747 26.94392844 0.05894139 34.01000977 0.02270508 C36.41467218 0.00760184 38.81930698 -0.01288208 41.22387695 -0.03881836 C44.67666431 -0.07513351 48.12908804 -0.092211 51.58203125 -0.10546875 C52.66023636 -0.12095261 53.73844147 -0.13643646 54.84931946 -0.15238953 C55.85013046 -0.15261612 56.85094147 -0.15284271 57.88208008 -0.15307617 C58.76366287 -0.15973801 59.64524567 -0.16639984 60.55354309 -0.17326355 C62.8125 0.1875 62.8125 0.1875 64.6023407 1.47172546 C66.68593114 4.42585837 66.11831754 7.90131838 66 11.375 C65.97969727 12.49938477 65.97969727 12.49938477 65.95898438 13.64648438 C65.92368539 15.49379767 65.86987917 17.34074066 65.8125 19.1875 C66.885 19.105 67.9575 19.0225 69.0625 18.9375 C72.8125 19.1875 72.8125 19.1875 75.01849365 20.68133545 C77.53172852 24.19223727 77.34227795 27.38013206 77.26660156 31.53613281 C77.26718567 32.37552399 77.26776978 33.21491516 77.26837158 34.07974243 C77.26558786 36.85045929 77.23448277 39.62009641 77.203125 42.390625 C77.19566362 44.31304334 77.1899702 46.23546929 77.18597412 48.15789795 C77.17070967 53.2149764 77.13142075 58.2715945 77.0871582 63.32849121 C77.04622306 68.48976413 77.02796685 73.6511115 77.0078125 78.8125 C76.96492739 88.93770213 76.89666613 99.06256277 76.8125 109.1875 C75.1625 108.8575 73.5125 108.5275 71.8125 108.1875 C71.8125 80.4675 71.8125 52.7475 71.8125 24.1875 C49.7025 24.1875 27.5925 24.1875 4.8125 24.1875 C5.1425 56.8575 5.4725 89.5275 5.8125 123.1875 C27.2625 123.1875 48.7125 123.1875 70.8125 123.1875 C71.1425 120.2175 71.4725 117.2475 71.8125 114.1875 C73.1325 113.8575 74.4525 113.5275 75.8125 113.1875 C77.54469928 114.91969928 77.02541761 117.20776808 77.0625 119.5625 C77.08828125 120.53960937 77.1140625 121.51671875 77.140625 122.5234375 C76.8125 125.1875 76.8125 125.1875 75.71765137 126.82974243 C72.85392219 128.87065636 70.48965675 128.56900055 67.00195312 128.57568359 C65.96976906 128.58356903 65.96976906 128.58356903 64.91673279 128.59161377 C62.64217427 128.60481742 60.36831563 128.59607496 58.09375 128.5859375 C56.51338568 128.58795814 54.93302226 128.5908695 53.35266113 128.59463501 C50.04051842 128.59905884 46.72861841 128.5926256 43.41650391 128.57861328 C39.1692091 128.56152114 34.92248298 128.57136204 30.67520905 128.58933067 C27.41184193 128.60016706 24.14860981 128.59672289 20.88523865 128.5889473 C19.31912672 128.58694487 17.75300256 128.58940605 16.18690491 128.59638596 C13.99862157 128.60399831 11.81126139 128.5924006 9.62304688 128.57568359 C8.37744995 128.57329681 7.13185303 128.57091003 5.84851074 128.56845093 C2.8125 128.1875 2.8125 128.1875 0.90515137 126.90029907 C-1.00923254 123.89938307 -0.49208505 120.43749705 -0.375 117 C-0.36146484 116.25041016 -0.34792969 115.50082031 -0.33398438 114.72851562 C-0.29868539 112.88120233 -0.24487917 111.03425934 -0.1875 109.1875 C-1.26 109.27 -2.3325 109.3525 -3.4375 109.4375 C-7.1875 109.1875 -7.1875 109.1875 -9.39051819 107.78248596 C-12.13464942 103.81974022 -11.73796691 100.13154912 -11.68920898 95.41772461 C-11.69461197 94.42709518 -11.70001495 93.43646576 -11.70558167 92.41581726 C-11.71809277 89.1401892 -11.70156275 85.86543588 -11.68359375 82.58984375 C-11.68374867 80.3158819 -11.68523648 78.04191977 -11.68800354 75.76795959 C-11.68938856 71.00233284 -11.67681085 66.23700668 -11.65405273 61.47143555 C-11.62565198 55.35550009 -11.62840857 49.24006362 -11.64114285 43.12409115 C-11.64808912 38.428998 -11.640323 33.7340207 -11.62788582 29.03894234 C-11.62336224 26.78343716 -11.62304239 24.52791958 -11.62695122 22.27241325 C-11.6298535 19.12397523 -11.6134037 15.9762313 -11.59155273 12.82788086 C-11.59605438 11.89117554 -11.60055603 10.95447021 -11.60519409 9.98937988 C-11.59528946 9.13279282 -11.58538483 8.27620575 -11.57518005 7.3936615 C-11.57275016 6.64943908 -11.57032026 5.90521666 -11.56781673 5.13844204 C-10.37940557 -0.95784846 -5.06373092 -0.17247642 0 0 Z M48.984375 9.59375 C47.86086639 9.95998474 47.86086639 9.95998474 46.71466064 10.33361816 C44.32876815 11.11275369 41.94564486 11.90000516 39.5625 12.6875 C37.94288435 13.21798562 36.32309454 13.7479398 34.703125 14.27734375 C30.73753783 15.57457688 26.77441413 16.87909399 22.8125 18.1875 C22.8125 18.5175 22.8125 18.8475 22.8125 19.1875 C35.3525 19.1875 47.8925 19.1875 60.8125 19.1875 C60.8125 15.2275 60.8125 11.2675 60.8125 7.1875 C56.46565076 7.1875 53.04710691 8.24180718 48.984375 9.59375 Z " fill="#FFFFFF" transform="translate(31.1875,-0.1875)"/>
<path d="M0 0 C1.06734375 -0.00257812 2.1346875 -0.00515625 3.234375 -0.0078125 C4.91273437 0.00378906 4.91273437 0.00378906 6.625 0.015625 C7.74390625 0.00789063 8.8628125 0.00015625 10.015625 -0.0078125 C11.08296875 -0.00523438 12.1503125 -0.00265625 13.25 0 C14.23226562 0.00225586 15.21453125 0.00451172 16.2265625 0.00683594 C18.625 0.265625 18.625 0.265625 20.625 2.265625 C20.86791992 4.48046875 20.86791992 4.48046875 20.85546875 7.203125 C20.85353516 8.18023437 20.85160156 9.15734375 20.84960938 10.1640625 C20.83124023 11.69933594 20.83124023 11.69933594 20.8125 13.265625 C20.81185547 14.28914063 20.81121094 15.31265625 20.81054688 16.3671875 C20.76532251 23.98497997 20.76532251 23.98497997 19.625 26.265625 C11.045 26.265625 2.465 26.265625 -6.375 26.265625 C-8.31845974 22.37870552 -7.55980803 17.54047919 -7.5625 13.265625 C-7.57474609 12.24210937 -7.58699219 11.21859375 -7.59960938 10.1640625 C-7.60250977 8.69839844 -7.60250977 8.69839844 -7.60546875 7.203125 C-7.60957764 6.30464844 -7.61368652 5.40617187 -7.61791992 4.48046875 C-7.09344129 -0.3015113 -4.04434186 0.00928819 0 0 Z M-2.375 5.265625 C-2.375 10.875625 -2.375 16.485625 -2.375 22.265625 C3.565 22.265625 9.505 22.265625 15.625 22.265625 C15.625 16.655625 15.625 11.045625 15.625 5.265625 C9.685 5.265625 3.745 5.265625 -2.375 5.265625 Z " fill="#FFFFFF" transform="translate(47.375,92.734375)"/>
<path d="M0 0 C1.06734375 -0.00257812 2.1346875 -0.00515625 3.234375 -0.0078125 C4.91273437 0.00378906 4.91273437 0.00378906 6.625 0.015625 C7.74390625 0.00789063 8.8628125 0.00015625 10.015625 -0.0078125 C11.08296875 -0.00523438 12.1503125 -0.00265625 13.25 0 C14.23226562 0.00225586 15.21453125 0.00451172 16.2265625 0.00683594 C18.625 0.265625 18.625 0.265625 20.625 2.265625 C20.86791992 4.48046875 20.86791992 4.48046875 20.85546875 7.203125 C20.85353516 8.18023437 20.85160156 9.15734375 20.84960938 10.1640625 C20.83124023 11.69933594 20.83124023 11.69933594 20.8125 13.265625 C20.81185547 14.28914063 20.81121094 15.31265625 20.81054688 16.3671875 C20.76532251 23.98497997 20.76532251 23.98497997 19.625 26.265625 C11.045 26.265625 2.465 26.265625 -6.375 26.265625 C-8.31845974 22.37870552 -7.55980803 17.54047919 -7.5625 13.265625 C-7.57474609 12.24210937 -7.58699219 11.21859375 -7.59960938 10.1640625 C-7.60250977 8.69839844 -7.60250977 8.69839844 -7.60546875 7.203125 C-7.60957764 6.30464844 -7.61368652 5.40617187 -7.61791992 4.48046875 C-7.09344129 -0.3015113 -4.04434186 0.00928819 0 0 Z M-2.375 5.265625 C-2.375 10.875625 -2.375 16.485625 -2.375 22.265625 C3.565 22.265625 9.505 22.265625 15.625 22.265625 C15.625 16.655625 15.625 11.045625 15.625 5.265625 C9.685 5.265625 3.745 5.265625 -2.375 5.265625 Z " fill="#FFFFFF" transform="translate(47.375,27.734375)"/>
<path d="M0 0 C4.12494151 -0.05784708 8.24977944 -0.09354407 12.375 -0.125 C13.550625 -0.14175781 14.72625 -0.15851562 15.9375 -0.17578125 C17.61972656 -0.18544922 17.61972656 -0.18544922 19.3359375 -0.1953125 C20.37282715 -0.20578613 21.4097168 -0.21625977 22.47802734 -0.22705078 C25 0 25 0 27 2 C27.25878906 4.21484375 27.25878906 4.21484375 27.265625 6.9375 C27.26949219 8.40316406 27.26949219 8.40316406 27.2734375 9.8984375 C27.26570313 10.92195313 27.25796875 11.94546875 27.25 13 C27.25773437 14.02351563 27.26546875 15.04703125 27.2734375 16.1015625 C27.27085938 17.07867187 27.26828125 18.05578125 27.265625 19.0625 C27.26336914 19.96097656 27.26111328 20.85945313 27.25878906 21.78515625 C27 24 27 24 25 26 C22.6015625 26.25878906 22.6015625 26.25878906 19.625 26.265625 C18.55765625 26.26820312 17.4903125 26.27078125 16.390625 26.2734375 C14.71226563 26.26183594 14.71226563 26.26183594 13 26.25 C11.88109375 26.25773437 10.7621875 26.26546875 9.609375 26.2734375 C8.54203125 26.27085938 7.4746875 26.26828125 6.375 26.265625 C5.39273438 26.26336914 4.41046875 26.26111328 3.3984375 26.25878906 C1 26 1 26 -1 24 C-1.24291992 21.78515625 -1.24291992 21.78515625 -1.23046875 19.0625 C-1.22853516 18.08539063 -1.22660156 17.10828125 -1.22460938 16.1015625 C-1.21236328 15.07804687 -1.20011719 14.05453125 -1.1875 13 C-1.18685547 11.97648437 -1.18621094 10.95296875 -1.18554688 9.8984375 C-1.14032251 2.28064503 -1.14032251 2.28064503 0 0 Z M4 4 C4 9.61 4 15.22 4 21 C9.94 21 15.88 21 22 21 C22 15.39 22 9.78 22 4 C16.06 4 10.12 4 4 4 Z " fill="#FFFFFF" transform="translate(41,62)"/>
<path d="M0 0 C1.084021 0.00523682 2.16804199 0.01047363 3.28491211 0.01586914 C5.03964844 0.02070312 5.03964844 0.02070312 6.82983398 0.02563477 C8.67738281 0.03820312 8.67738281 0.03820312 10.56225586 0.05102539 C12.41560547 0.05779297 12.41560547 0.05779297 14.30639648 0.06469727 C17.37089703 0.07652931 20.43530307 0.09301366 23.49975586 0.11352539 C24.06225586 2.05102539 24.06225586 2.05102539 24.49975586 4.11352539 C23.49975586 5.11352539 23.49975586 5.11352539 20.99951172 5.22705078 C19.91549072 5.22181396 18.83146973 5.21657715 17.71459961 5.21118164 C16.54477539 5.20795898 15.37495117 5.20473633 14.16967773 5.20141602 C12.93797852 5.19303711 11.7062793 5.1846582 10.43725586 5.17602539 C8.58390625 5.16925781 8.58390625 5.16925781 6.69311523 5.16235352 C3.62861469 5.15052147 0.56420864 5.13403712 -2.50024414 5.11352539 C-3.06274414 3.17602539 -3.06274414 3.17602539 -3.50024414 1.11352539 C-2.50024414 0.11352539 -2.50024414 0.11352539 0 0 Z " fill="#FFFFFF" transform="translate(74.500244140625,68.886474609375)"/>
<path d="M0 0 C1.084021 0.00523682 2.16804199 0.01047363 3.28491211 0.01586914 C5.03964844 0.02070312 5.03964844 0.02070312 6.82983398 0.02563477 C8.67738281 0.03820313 8.67738281 0.03820313 10.56225586 0.05102539 C12.41560547 0.05779297 12.41560547 0.05779297 14.30639648 0.06469727 C17.37089703 0.07652931 20.43530307 0.09301366 23.49975586 0.11352539 C24.06225586 2.05102539 24.06225586 2.05102539 24.49975586 4.11352539 C23.49975586 5.11352539 23.49975586 5.11352539 20.99951172 5.22705078 C19.91549072 5.22181396 18.83146973 5.21657715 17.71459961 5.21118164 C16.54477539 5.20795898 15.37495117 5.20473633 14.16967773 5.20141602 C12.93797852 5.19303711 11.7062793 5.1846582 10.43725586 5.17602539 C8.58390625 5.16925781 8.58390625 5.16925781 6.69311523 5.16235352 C3.62861469 5.15052147 0.56420864 5.13403712 -2.50024414 5.11352539 C-3.06274414 3.17602539 -3.06274414 3.17602539 -3.50024414 1.11352539 C-2.50024414 0.11352539 -2.50024414 0.11352539 0 0 Z " fill="#FFFFFF" transform="translate(74.500244140625,34.886474609375)"/>
<path d="M0 0 C1.11568359 -0.00128906 2.23136719 -0.00257812 3.38085938 -0.00390625 C5.14333008 0.00189453 5.14333008 0.00189453 6.94140625 0.0078125 C8.11251953 0.00394531 9.28363281 0.00007813 10.49023438 -0.00390625 C12.16569336 -0.00197266 12.16569336 -0.00197266 13.875 0 C14.9055249 0.00112793 15.9360498 0.00225586 16.99780273 0.00341797 C19.50390625 0.1328125 19.50390625 0.1328125 21.50390625 1.1328125 C21.17390625 2.4528125 20.84390625 3.7728125 20.50390625 5.1328125 C11.92390625 5.1328125 3.34390625 5.1328125 -5.49609375 5.1328125 C-5.82609375 3.8128125 -6.15609375 2.4928125 -6.49609375 1.1328125 C-4.75536171 -0.60791954 -2.3651774 0.00259157 0 0 Z " fill="#FFFFFF" transform="translate(77.49609375,99.8671875)"/>
<path d="M0 0 C1.65322266 0.01740234 1.65322266 0.01740234 3.33984375 0.03515625 C4.99693359 0.04869141 4.99693359 0.04869141 6.6875 0.0625 C7.54214844 0.07410156 8.39679688 0.08570312 9.27734375 0.09765625 C8.94734375 1.74765625 8.61734375 3.39765625 8.27734375 5.09765625 C4.64734375 5.09765625 1.01734375 5.09765625 -2.72265625 5.09765625 C-3.05265625 3.77765625 -3.38265625 2.45765625 -3.72265625 1.09765625 C-2.72265625 0.09765625 -2.72265625 0.09765625 0 0 Z " fill="#FFFFFF" transform="translate(74.72265625,75.90234375)"/>
<path d="M0 0 C0.91007812 0.00902344 1.82015625 0.01804688 2.7578125 0.02734375 C3.45648438 0.03894531 4.15515625 0.05054688 4.875 0.0625 C5.205 1.7125 5.535 3.3625 5.875 5.0625 C1.585 5.0625 -2.705 5.0625 -7.125 5.0625 C-7.125 3.7425 -7.125 2.4225 -7.125 1.0625 C-4.60024538 -0.19987731 -2.81299534 -0.03606404 0 0 Z " fill="#FFFFFF" transform="translate(78.125,41.9375)"/>
<path d="M0 0 C4.29 0 8.58 0 13 0 C13 1.32 13 2.64 13 4 C8.71 4 4.42 4 0 4 C0 2.68 0 1.36 0 0 Z " fill="#FFFFFF" transform="translate(71,108)"/>
</svg>
