<?xml version="1.0" encoding="UTF-8"?>
<svg version="1.1" xmlns="http://www.w3.org/2000/svg" width="128" height="128">
<path d="M0 0 C15.84 0 31.68 0 48 0 C48 4.95 48 9.9 48 15 C46.68 15.33 45.36 15.66 44 16 C43 15 43 15 42.90234375 12.71484375 C42.93489583 10.14322917 42.96744792 7.57161458 43 5 C39.7 5 36.4 5 33 5 C33 8.96 33 12.92 33 17 C30.02760209 18.48619895 27.30380422 18.13177009 24 18.125 C22.1128125 18.12886719 22.1128125 18.12886719 20.1875 18.1328125 C17 18 17 18 15 17 C15 13.04 15 9.08 15 5 C11.7 5 8.4 5 5 5 C5 17.21 5 29.42 5 42 C17.54 42 30.08 42 43 42 C43 34.74 43 27.48 43 20 C44.32 19.67 45.64 19.34 47 19 C48.77449594 20.77449594 48.13030072 23.35017261 48.1328125 25.75 C48.13474609 27.49796875 48.13474609 27.49796875 48.13671875 29.28125 C48.13285156 30.5084375 48.12898438 31.735625 48.125 33 C48.13080078 34.84078125 48.13080078 34.84078125 48.13671875 36.71875 C48.13542969 37.8840625 48.13414063 39.049375 48.1328125 40.25 C48.13168457 41.32765625 48.13055664 42.4053125 48.12939453 43.515625 C48 46 48 46 47 47 C45.56259647 47.09813987 44.12043673 47.1279828 42.6796875 47.12939453 C41.76203613 47.13254669 40.84438477 47.13569885 39.89892578 47.13894653 C38.90103027 47.1369223 37.90313477 47.13489807 36.875 47.1328125 C35.85776855 47.13376923 34.84053711 47.13472595 33.79248047 47.13571167 C31.63704364 47.13639361 29.48160478 47.13453835 27.32617188 47.13037109 C24.01427629 47.12502305 20.70251633 47.13031563 17.390625 47.13671875 C15.30208303 47.13605797 13.21354115 47.13477681 11.125 47.1328125 C9.62815674 47.13584885 9.62815674 47.13584885 8.10107422 47.13894653 C7.18342285 47.13579437 6.26577148 47.13264221 5.3203125 47.12939453 C4.50836426 47.12859894 3.69641602 47.12780334 2.85986328 47.12698364 C1 47 1 47 0 46 C-0.09295815 44.55710213 -0.11746513 43.10970215 -0.11352539 41.66381836 C-0.11340454 40.73001343 -0.11328369 39.7962085 -0.11315918 38.83410645 C-0.10804321 37.84599976 -0.10292725 36.85789307 -0.09765625 35.83984375 C-0.09664917 34.93657349 -0.09564209 34.03330322 -0.09460449 33.10266113 C-0.08935512 29.71426126 -0.07539398 26.32587941 -0.0625 22.9375 C-0.041875 15.368125 -0.02125 7.79875 0 0 Z M20 5 C20 7.31 20 9.62 20 12 C22.64 12 25.28 12 28 12 C28 9.69 28 7.38 28 5 C25.36 5 22.72 5 20 5 Z " fill="#FFFFFF" transform="translate(40,0)"/>
<path d="M0 0 C1.25554687 -0.00128906 2.51109375 -0.00257812 3.8046875 -0.00390625 C4.46178711 -0.00181152 5.11888672 0.0002832 5.79589844 0.00244141 C7.80411335 0.00779016 9.81210459 0.00249559 11.8203125 -0.00390625 C13.07585937 -0.00261719 14.33140625 -0.00132813 15.625 0 C16.78644531 0.00112793 17.94789062 0.00225586 19.14453125 0.00341797 C21.8125 0.1328125 21.8125 0.1328125 22.8125 1.1328125 C22.90033542 3.35136514 22.91944609 5.57269746 22.91015625 7.79296875 C22.90765869 9.00863525 22.90516113 10.22430176 22.90258789 11.47680664 C22.89348389 13.03391357 22.88437988 14.59102051 22.875 16.1953125 C22.854375 21.1246875 22.83375 26.0540625 22.8125 31.1328125 C12.9125 31.1328125 3.0125 31.1328125 -7.1875 31.1328125 C-7.208125 26.2034375 -7.22875 21.2740625 -7.25 16.1953125 C-7.259104 14.63820557 -7.26820801 13.08109863 -7.27758789 11.47680664 C-7.28008545 10.26114014 -7.28258301 9.04547363 -7.28515625 7.79296875 C-7.29039307 6.54136963 -7.29562988 5.28977051 -7.30102539 4.00024414 C-7.0963709 -1.16893212 -4.5916044 0.00445911 0 0 Z M-2.1875 5.1328125 C-2.1875 12.0628125 -2.1875 18.9928125 -2.1875 26.1328125 C4.4125 26.1328125 11.0125 26.1328125 17.8125 26.1328125 C17.8125 19.2028125 17.8125 12.2728125 17.8125 5.1328125 C16.8225 5.1328125 15.8325 5.1328125 14.8125 5.1328125 C14.4825 8.4328125 14.1525 11.7328125 13.8125 15.1328125 C9.8525 15.1328125 5.8925 15.1328125 1.8125 15.1328125 C1.4825 11.8328125 1.1525 8.5328125 0.8125 5.1328125 C-0.1775 5.1328125 -1.1675 5.1328125 -2.1875 5.1328125 Z M5.8125 5.1328125 C5.8125 7.1128125 5.8125 9.0928125 5.8125 11.1328125 C7.1325 11.1328125 8.4525 11.1328125 9.8125 11.1328125 C9.8125 9.1528125 9.8125 7.1728125 9.8125 5.1328125 C8.4925 5.1328125 7.1725 5.1328125 5.8125 5.1328125 Z " fill="#FFFFFF" transform="translate(105.1875,90.8671875)"/>
<path d="M0 0 C9.9 0 19.8 0 30 0 C30.020625 4.929375 30.04125 9.85875 30.0625 14.9375 C30.071604 16.49460693 30.08070801 18.05171387 30.09008789 19.65600586 C30.09258545 20.87167236 30.09508301 22.08733887 30.09765625 23.33984375 C30.10551147 25.21724243 30.10551147 25.21724243 30.11352539 27.13256836 C30 30 30 30 29 31 C26.9394469 31.09993532 24.8754741 31.13080906 22.8125 31.1328125 C21.55695312 31.13410156 20.30140625 31.13539062 19.0078125 31.13671875 C18.35071289 31.13462402 17.69361328 31.1325293 17.01660156 31.13037109 C15.00838665 31.12502234 13.00039541 31.13031691 10.9921875 31.13671875 C9.73664062 31.13542969 8.48109375 31.13414063 7.1875 31.1328125 C6.02605469 31.13168457 4.86460937 31.13055664 3.66796875 31.12939453 C1 31 1 31 0 30 C-0.08783542 27.78144736 -0.10694609 25.56011504 -0.09765625 23.33984375 C-0.09515869 22.12417725 -0.09266113 20.90851074 -0.09008789 19.65600586 C-0.08098389 18.09889893 -0.07187988 16.54179199 -0.0625 14.9375 C-0.041875 10.008125 -0.02125 5.07875 0 0 Z M5 5 C5 11.93 5 18.86 5 26 C11.6 26 18.2 26 25 26 C25 19.07 25 12.14 25 5 C24.01 5 23.02 5 22 5 C21.67 8.3 21.34 11.6 21 15 C17.04 15 13.08 15 9 15 C8.67 11.7 8.34 8.4 8 5 C7.01 5 6.02 5 5 5 Z M13 5 C13 6.98 13 8.96 13 11 C14.32 11 15.64 11 17 11 C17 9.02 17 7.04 17 5 C15.68 5 14.36 5 13 5 Z " fill="#FFFFFF" transform="translate(0,87)"/>
<path d="M0 0 C9.9 0 19.8 0 30 0 C30 9.9 30 19.8 30 30 C20.1 30 10.2 30 0 30 C0 20.1 0 10.2 0 0 Z M5 5 C5 11.6 5 18.2 5 25 C11.6 25 18.2 25 25 25 C25 18.4 25 11.8 25 5 C21.04 5 17.08 5 13 5 C13 6.65 13 8.3 13 10 C15.64 9.67 18.28 9.34 21 9 C21.33 10.98 21.66 12.96 22 15 C17.38 15 12.76 15 8 15 C8 11.7 8 8.4 8 5 C7.01 5 6.02 5 5 5 Z " fill="#FFFFFF" transform="translate(49,98)"/>
<path d="M0 0 C1.32 0 2.64 0 4 0 C5.32 3.3 6.64 6.6 8 10 C9.670625 9.7215625 9.670625 9.7215625 11.375 9.4375 C15 9 15 9 17 10 C16.34421117 15.42118766 14.63458249 20.18840193 12.6875 25.25 C12.39166016 26.0646875 12.09582031 26.879375 11.79101562 27.71875 C11.49259766 28.49734375 11.19417969 29.2759375 10.88671875 30.078125 C10.62076904 30.78356445 10.35481934 31.48900391 10.08081055 32.21582031 C8.66783549 34.54833031 7.61022709 35.2301512 5 36 C2.84936523 35.35668945 2.84936523 35.35668945 0.55859375 34.11328125 C-0.27220703 33.66919922 -1.10300781 33.22511719 -1.95898438 32.76757812 C-2.81814453 32.28740234 -3.67730469 31.80722656 -4.5625 31.3125 C-5.42552734 30.85166016 -6.28855469 30.39082031 -7.17773438 29.91601562 C-10.89193126 27.89874785 -14.11928269 26.13787319 -17 23 C-15.9024777 20.00675737 -15.32317108 19.15389099 -12.375 17.75 C-11.59125 17.5025 -10.8075 17.255 -10 17 C-10.22816406 16.46890625 -10.45632812 15.9378125 -10.69140625 15.390625 C-11.12259766 14.33101562 -11.12259766 14.33101562 -11.5625 13.25 C-11.85253906 12.55390625 -12.14257812 11.8578125 -12.44140625 11.140625 C-13.07831803 8.69987216 -12.80248831 7.3596345 -12 5 C-10.68 5 -9.36 5 -8 5 C-7.13227971 7.07772471 -6.28126381 9.16243177 -5.4375 11.25 C-4.96183594 12.41015625 -4.48617187 13.5703125 -3.99609375 14.765625 C-2.64733404 19.14512712 -2.64733404 19.14512712 -4 22 C-4.66 22.33 -5.32 22.66 -6 23 C-2.37 24.98 1.26 26.96 5 29 C5.474375 27.39125 5.94875 25.7825 6.4375 24.125 C7.875 19.25 7.875 19.25 9 17 C7.35 17 5.7 17 4 17 C-0.60244648 6.16819572 -0.60244648 6.16819572 -1 1 C-0.67 0.67 -0.34 0.34 0 0 Z " fill="#FFFFFF" transform="translate(104,45)"/>
<path d="M0 0 C0.99 0.33 1.98 0.66 3 1 C2.45819263 5.12945075 1.20641582 7.50416914 -1.375 10.75 C-1.98085938 11.52859375 -2.58671875 12.3071875 -3.2109375 13.109375 C-5 15 -5 15 -8 16 C-8.99 15.34 -9.98 14.68 -11 14 C-11 18.29 -11 22.58 -11 27 C-7.7 26.34 -4.4 25.68 -1 25 C-1 24.01 -1 23.02 -1 22 C0.38612947 16.60949649 4.31275278 12.97315676 8 9 C10.475 9.495 10.475 9.495 13 10 C12.39305845 13.15330554 11.3583335 15.18888867 9.4375 17.75 C8.98246094 18.36359375 8.52742188 18.9771875 8.05859375 19.609375 C7.70925781 20.06828125 7.35992187 20.5271875 7 21 C7.99 21.86625 7.99 21.86625 9 22.75 C11 25 11 25 11 29 C2.35954742 30.70450615 -6.19828026 32.38641858 -15 33 C-16.93709638 29.74246076 -17.23715445 27.34390072 -17.1953125 23.578125 C-17.18564453 22.04091797 -17.18564453 22.04091797 -17.17578125 20.47265625 C-17.15902344 19.40917969 -17.14226563 18.34570312 -17.125 17.25 C-17.11597656 16.17105469 -17.10695313 15.09210937 -17.09765625 13.98046875 C-17.07411305 11.32008722 -17.04122799 8.66015664 -17 6 C-14.64453125 5.41015625 -14.64453125 5.41015625 -12 5 C-9.6875 6.4375 -9.6875 6.4375 -8 8 C-7.59007812 7.50628906 -7.18015625 7.01257812 -6.7578125 6.50390625 C-6.21898437 5.86324219 -5.68015625 5.22257812 -5.125 4.5625 C-4.59132813 3.92441406 -4.05765625 3.28632812 -3.5078125 2.62890625 C-2 1 -2 1 0 0 Z " fill="#FFFFFF" transform="translate(26,45)"/>
<path d="M0 0 C1.32 0.33 2.64 0.66 4 1 C4 6.28 4 11.56 4 17 C2.02 17.99 2.02 17.99 0 19 C1.11799986 20.33920838 2.24461897 21.67122556 3.375 23 C4.00148438 23.7425 4.62796875 24.485 5.2734375 25.25 C5.84320313 25.8275 6.41296875 26.405 7 27 C7.66 27 8.32 27 9 27 C10.80693756 25.21387689 10.80693756 25.21387689 12.625 23 C13.25664063 22.2575 13.88828125 21.515 14.5390625 20.75 C15.02117187 20.1725 15.50328125 19.595 16 19 C14.68 18.34 13.36 17.68 12 17 C12 11.72 12 6.44 12 1 C13.32 0.67 14.64 0.34 16 0 C17 1 17 1 17.09765625 3.72265625 C17.08605469 4.82480469 17.07445313 5.92695312 17.0625 7.0625 C17.05347656 8.16722656 17.04445313 9.27195312 17.03515625 10.41015625 C17.02355469 11.26480469 17.01195313 12.11945313 17 13 C19.64 13 22.28 13 25 13 C25.495 14.485 25.495 14.485 26 16 C24.375 18.41796875 24.375 18.41796875 22 21.1875 C20.76443359 22.6415625 20.76443359 22.6415625 19.50390625 24.125 C18.67761719 25.07375 17.85132812 26.0225 17 27 C16.28714844 27.825 15.57429688 28.65 14.83984375 29.5 C13.23706458 31.34303149 11.62494062 33.17651358 10 35 C4.07630246 34.42741061 1.92212199 31.02714179 -1.76953125 26.7109375 C-2.87361328 25.36902344 -2.87361328 25.36902344 -4 24 C-4.64324219 23.22914062 -5.28648438 22.45828125 -5.94921875 21.6640625 C-9.07074875 17.74941649 -9.07074875 17.74941649 -10 16 C-9.67 15.01 -9.34 14.02 -9 13 C-6.36 13 -3.72 13 -1 13 C-1.01160156 12.14535156 -1.02320313 11.29070312 -1.03515625 10.41015625 C-1.04417969 9.30542969 -1.05320312 8.20070313 -1.0625 7.0625 C-1.07410156 5.96035156 -1.08570313 4.85820313 -1.09765625 3.72265625 C-1 1 -1 1 0 0 Z " fill="#FFFFFF" transform="translate(56,55)"/>
<path d="M0 0 C3.63 0 7.26 0 11 0 C11.33 1.65 11.66 3.3 12 5 C7.71 5 3.42 5 -1 5 C-0.67 3.35 -0.34 1.7 0 0 Z " fill="#FFFFFF" transform="translate(50,25)"/>
<path d="M0 0 C3.63 0 7.26 0 11 0 C10.67 1.65 10.34 3.3 10 5 C7.03 5 4.06 5 1 5 C0.67 3.35 0.34 1.7 0 0 Z " fill="#FFFFFF" transform="translate(49,34)"/>
</svg>
