<?xml version="1.0" encoding="UTF-8"?>
<svg version="1.1" xmlns="http://www.w3.org/2000/svg" width="128" height="128">
<path d="M0 0 C1.11455566 -0.00630432 2.22911133 -0.01260864 3.37744141 -0.019104 C4.58577637 -0.01505554 5.79411133 -0.01100708 7.0390625 -0.00683594 C8.89217041 -0.00970612 8.89217041 -0.00970612 10.78271484 -0.01263428 C14.06997657 -0.01434704 17.35705037 -0.00627793 20.64428711 0.00488281 C22.6620078 0.00878509 24.67955451 0.00489736 26.69726562 -0.00195312 C30.56128078 -0.01427098 34.42503678 -0.01282072 38.2890625 -0.00683594 C39.49739746 -0.0108844 40.70573242 -0.01493286 41.95068359 -0.019104 C43.06523926 -0.01279968 44.17979492 -0.00649536 45.328125 0 C46.80466553 0.00238678 46.80466553 0.00238678 48.31103516 0.00482178 C50.6640625 0.25878906 50.6640625 0.25878906 52.6640625 2.25878906 C52.86237766 4.80767031 52.93684512 7.24789127 52.92285156 9.79785156 C52.9263562 10.57521667 52.92986084 11.35258179 52.93347168 12.15350342 C52.94229456 14.73035539 52.93643795 17.30693416 52.9296875 19.88378906 C52.93103399 21.66975965 52.93297439 23.45572989 52.93548584 25.24169922 C52.93843785 28.98766565 52.93413699 32.73353681 52.92480469 36.47949219 C52.91341009 41.28841739 52.91996916 46.09711937 52.93194962 50.90603638 C52.93916614 54.59482515 52.93688125 58.28356073 52.93169403 61.97235107 C52.93035696 63.74582953 52.93200726 65.51931277 52.93665314 67.29278564 C52.94171499 69.76856332 52.93401313 72.24397616 52.92285156 74.71972656 C52.92690002 75.457453 52.93094849 76.19517944 52.93511963 76.95526123 C52.89259128 82.03026028 52.89259128 82.03026028 50.6640625 84.25878906 C46.0440625 84.25878906 41.4240625 84.25878906 36.6640625 84.25878906 C36.6640625 96.13878906 36.6640625 108.01878906 36.6640625 120.25878906 C35.3440625 120.25878906 34.0240625 120.25878906 32.6640625 120.25878906 C32.6640625 108.37878906 32.6640625 96.49878906 32.6640625 84.25878906 C26.0640625 84.25878906 19.4640625 84.25878906 12.6640625 84.25878906 C12.6640625 96.13878906 12.6640625 108.01878906 12.6640625 120.25878906 C0.7840625 120.25878906 -11.0959375 120.25878906 -23.3359375 120.25878906 C-23.3359375 95.17878906 -23.3359375 70.09878906 -23.3359375 44.25878906 C-22.0159375 44.25878906 -20.6959375 44.25878906 -19.3359375 44.25878906 C-19.23796875 44.88527344 -19.14 45.51175781 -19.0390625 46.15722656 C-18.88953125 46.97449219 -18.74 47.79175781 -18.5859375 48.63378906 C-18.44671875 49.44589844 -18.3075 50.25800781 -18.1640625 51.09472656 C-17.51730392 53.35506806 -17.51730392 53.35506806 -15.6484375 54.54003906 C-12.70405751 55.45518419 -10.16450969 55.45071454 -7.0859375 55.38378906 C-5.46945313 55.35671875 -5.46945313 55.35671875 -3.8203125 55.32910156 C-3.00046875 55.30589844 -2.180625 55.28269531 -1.3359375 55.25878906 C-1.3359375 54.59878906 -1.3359375 53.93878906 -1.3359375 53.25878906 C-8.2659375 52.76378906 -8.2659375 52.76378906 -15.3359375 52.25878906 C-15.7265625 48.74316406 -16.1171875 45.22753906 -16.5078125 41.71191406 C-17.42045078 37.90638465 -18.22523596 36.56384129 -21.3359375 34.25878906 C-25.03116992 32.7184261 -29.19476948 33.03799437 -33.1484375 33.00878906 C-33.83486328 32.98816406 -34.52128906 32.96753906 -35.22851562 32.94628906 C-40.30921953 32.9078353 -43.9348316 33.63027412 -48.3359375 36.25878906 C-50.22567341 40.56893213 -50.57410429 44.2986087 -50.53125 48.96972656 C-50.52480469 50.21367188 -50.51835938 51.45761719 -50.51171875 52.73925781 C-50.49496094 54.02445313 -50.47820313 55.30964844 -50.4609375 56.63378906 C-50.45191406 57.9421875 -50.44289063 59.25058594 -50.43359375 60.59863281 C-50.41008835 63.81887276 -50.37722837 67.03873613 -50.3359375 70.25878906 C-49.6759375 70.25878906 -49.0159375 70.25878906 -48.3359375 70.25878906 C-48.0059375 61.67878906 -47.6759375 53.09878906 -47.3359375 44.25878906 C-46.0159375 44.25878906 -44.6959375 44.25878906 -43.3359375 44.25878906 C-43.3359375 69.33878906 -43.3359375 94.41878906 -43.3359375 120.25878906 C-44.6559375 120.25878906 -45.9759375 120.25878906 -47.3359375 120.25878906 C-47.3359375 105.73878906 -47.3359375 91.21878906 -47.3359375 76.25878906 C-49.3159375 76.25878906 -51.2959375 76.25878906 -53.3359375 76.25878906 C-56.3110976 73.28362896 -55.69969363 69.99121685 -55.7421875 65.99707031 C-55.75358765 65.17305222 -55.76498779 64.34903412 -55.7767334 63.50004578 C-55.79564616 61.75244285 -55.80870648 60.00476838 -55.81640625 58.25708008 C-55.83574213 55.59815439 -55.8977236 52.94237369 -55.9609375 50.28417969 C-55.97400611 48.58432822 -55.98450371 46.88445465 -55.9921875 45.18457031 C-56.02922791 44.00136955 -56.02922791 44.00136955 -56.0670166 42.79426575 C-56.02368191 37.35194483 -54.60679744 34.55818193 -50.91833496 30.57389832 C-46.30985804 26.74385511 -39.09162893 28.033138 -33.4609375 28.00878906 C-31.68396484 27.97785156 -31.68396484 27.97785156 -29.87109375 27.94628906 C-28.72769531 27.94113281 -27.58429687 27.93597656 -26.40625 27.93066406 C-24.84028076 27.91664551 -24.84028076 27.91664551 -23.24267578 27.90234375 C-18.68822937 28.46084297 -15.25458303 30.75641442 -12.3359375 34.25878906 C-11.28616786 37.408098 -11.23462155 39.64693363 -11.2734375 42.94628906 C-11.28246094 43.94015625 -11.29148438 44.93402344 -11.30078125 45.95800781 C-11.31238281 46.71726563 -11.32398438 47.47652344 -11.3359375 48.25878906 C-10.34851562 48.23558594 -9.36109375 48.21238281 -8.34375 48.18847656 C-7.06242187 48.17042969 -5.78109375 48.15238281 -4.4609375 48.13378906 C-3.18476562 48.11058594 -1.90859375 48.08738281 -0.59375 48.06347656 C2.6640625 48.25878906 2.6640625 48.25878906 4.6640625 50.25878906 C4.9296875 52.13378906 4.9296875 52.13378906 4.9140625 54.25878906 C4.92179687 55.31066406 4.92179687 55.31066406 4.9296875 56.38378906 C4.6640625 58.25878906 4.6640625 58.25878906 2.6640625 60.25878906 C-0.4609375 60.38378906 -0.4609375 60.38378906 -3.3359375 60.25878906 C-3.19575924 63.23832265 -3.04907408 66.2172821 -2.8984375 69.19628906 C-2.85912109 70.04642578 -2.81980469 70.8965625 -2.77929688 71.77246094 C-2.73740234 72.58134766 -2.69550781 73.39023438 -2.65234375 74.22363281 C-2.59735718 75.34692993 -2.59735718 75.34692993 -2.54125977 76.49291992 C-2.51822687 78.28340233 -2.51822687 78.28340233 -1.3359375 79.25878906 C0.16276298 79.35710053 1.66604789 79.38677362 3.16796875 79.38818359 C4.12566162 79.39133575 5.08335449 79.39448792 6.07006836 79.3977356 C7.63253296 79.39469925 7.63253296 79.39469925 9.2265625 79.39160156 C10.28818604 79.39255829 11.34980957 79.39351501 12.44360352 79.39450073 C14.69319722 79.3951827 16.94279287 79.39332725 19.19238281 79.38916016 C22.64913321 79.38381216 26.10575367 79.38910461 29.5625 79.39550781 C31.74218779 79.39484703 33.9218755 79.39356588 36.1015625 79.39160156 C37.14320557 79.39362579 38.18484863 79.39565002 39.25805664 79.3977356 C40.69459595 79.39300735 40.69459595 79.39300735 42.16015625 79.38818359 C43.00763428 79.387388 43.8551123 79.38659241 44.72827148 79.38577271 C46.6706338 79.47198614 46.6706338 79.47198614 47.6640625 78.25878906 C47.9940625 74.95878906 48.3240625 71.65878906 48.6640625 68.25878906 C32.8240625 68.25878906 16.9840625 68.25878906 0.6640625 68.25878906 C0.6640625 66.93878906 0.6640625 65.61878906 0.6640625 64.25878906 C16.5040625 64.25878906 32.3440625 64.25878906 48.6640625 64.25878906 C48.55467869 56.72061566 48.44440477 49.18255883 48.32501984 41.64455414 C48.26970123 38.13456873 48.21613541 34.62457626 48.16674805 31.11450195 C48.11005582 27.09088762 48.04548849 23.06743375 47.98046875 19.04394531 C47.96375626 17.7804274 47.94704376 16.51690948 47.92982483 15.21510315 C47.899907 13.47341103 47.899907 13.47341103 47.86938477 11.6965332 C47.84606834 10.15431847 47.84606834 10.15431847 47.82228088 8.58094788 C47.92234379 6.29793553 47.92234379 6.29793553 46.6640625 5.25878906 C45.16536202 5.1604776 43.66207711 5.1308045 42.16015625 5.12939453 C41.20246338 5.12624237 40.24477051 5.12309021 39.25805664 5.11984253 C38.21641357 5.12186676 37.17477051 5.12389099 36.1015625 5.12597656 C35.03993896 5.12501984 33.97831543 5.12406311 32.88452148 5.12307739 C30.63492778 5.12239542 28.38533213 5.12425087 26.13574219 5.12841797 C22.67899179 5.13376597 19.22237133 5.12847352 15.765625 5.12207031 C13.58593721 5.12273109 11.4062495 5.12401225 9.2265625 5.12597656 C8.18491943 5.12395233 7.14327637 5.1219281 6.07006836 5.11984253 C4.63352905 5.12457077 4.63352905 5.12457077 3.16796875 5.12939453 C2.32049072 5.13019012 1.4730127 5.13098572 0.59985352 5.13180542 C-1.3425088 5.04559198 -1.3425088 5.04559198 -2.3359375 6.25878906 C-2.49610916 9.06855424 -2.59544284 11.85652502 -2.65234375 14.66894531 C-2.67312485 15.51098007 -2.69390594 16.35301483 -2.71531677 17.2205658 C-2.78090562 19.92072085 -2.83974026 22.62097623 -2.8984375 25.32128906 C-2.94161387 27.14747148 -2.98522786 28.9736436 -3.02929688 30.79980469 C-3.13659644 35.28602898 -3.23783716 39.77235456 -3.3359375 44.25878906 C-4.6559375 44.25878906 -5.9759375 44.25878906 -7.3359375 44.25878906 C-7.38528149 38.31397725 -7.42163032 32.36928397 -7.44580078 26.42431641 C-7.45587421 24.40085779 -7.46953345 22.37741378 -7.48681641 20.35400391 C-7.51100597 17.44983317 -7.52240699 14.54585446 -7.53125 11.64160156 C-7.54157257 10.7332254 -7.55189514 9.82484924 -7.56253052 8.88894653 C-7.56275711 7.62786575 -7.56275711 7.62786575 -7.56298828 6.34130859 C-7.5674295 5.59962433 -7.57187073 4.85794006 -7.57644653 4.09378052 C-6.98726911 -0.40141673 -3.70907996 0.00599561 0 0 Z M-19.3359375 59.25878906 C-19.3359375 78.06878906 -19.3359375 96.87878906 -19.3359375 116.25878906 C-10.0959375 116.25878906 -0.8559375 116.25878906 8.6640625 116.25878906 C8.6640625 105.69878906 8.6640625 95.13878906 8.6640625 84.25878906 C1.7340625 83.76378906 1.7340625 83.76378906 -5.3359375 83.25878906 C-6.98673192 81.60799464 -6.56143197 79.62142727 -6.65234375 77.34863281 C-6.69423828 76.35927734 -6.73613281 75.36992188 -6.77929688 74.35058594 C-6.81861328 73.30966797 -6.85792969 72.26875 -6.8984375 71.19628906 C-6.94162109 70.15150391 -6.98480469 69.10671875 -7.02929688 68.03027344 C-7.13574855 65.43994934 -7.23638058 62.84938731 -7.3359375 60.25878906 C-11.2959375 59.92878906 -15.2559375 59.59878906 -19.3359375 59.25878906 Z " fill="#FFFDFD" transform="translate(63.3359375,3.7412109375)"/>
<path d="M0 0 C3.12578143 1.6720747 5.39281175 3.7856235 7 7 C7.51512617 11.09157355 7.94367269 15.23589546 5.953125 18.95703125 C3.55501226 21.85592636 1.60351712 23.79811835 -2.171875 24.2734375 C-9.98876369 24.58137554 -9.98876369 24.58137554 -13.5625 21.625 C-17.3057723 17.59378368 -17.39037018 14.90519941 -17.359375 9.55078125 C-16.78039966 5.44131496 -15.00085071 3.78650423 -12 1 C-8.27533151 -0.86233425 -4.05504687 -0.57130829 0 0 Z M-10.375 6.625 C-12.48706506 9.71186432 -12.61195145 11.3282913 -12 15 C-10.5 17.5 -10.5 17.5 -8 19 C-4.3282913 19.61195145 -2.71186432 19.48706506 0.375 17.375 C2.48706506 14.28813568 2.61195145 12.6717087 2 9 C0.5 6.5 0.5 6.5 -2 5 C-5.6717087 4.38804855 -7.28813568 4.51293494 -10.375 6.625 Z " fill="#FFFDFD" transform="translate(35,4)"/>
<path d="M0 0 C1.32 0 2.64 0 4 0 C4 14.52 4 29.04 4 44 C2.68 44 1.36 44 0 44 C0 29.48 0 14.96 0 0 Z " fill="#FFFCFC" transform="translate(28,80)"/>
<path d="M0 0 C2.64 0 5.28 0 8 0 C8 1.32 8 2.64 8 4 C5.36 4 2.72 4 0 4 C0 2.68 0 1.36 0 0 Z " fill="#FFFCFC" transform="translate(92,76)"/>
<path d="M0 0 C2.64 0 5.28 0 8 0 C8 1.32 8 2.64 8 4 C5.36 4 2.72 4 0 4 C0 2.68 0 1.36 0 0 Z " fill="#FFFCFC" transform="translate(72,76)"/>
</svg>
