<?xml version="1.0" encoding="UTF-8"?>
<svg version="1.1" xmlns="http://www.w3.org/2000/svg" width="128" height="128">
<path d="M0 0 C9.9 0 19.8 0 30 0 C30 0.33 30 0.66 30 1 C31.02738281 0.9278125 32.05476563 0.855625 33.11328125 0.78125 C34.513008 0.68730861 35.91274835 0.59356967 37.3125 0.5 C37.98345703 0.45230469 38.65441406 0.40460937 39.34570312 0.35546875 C45.27043151 -0.03395002 51.02084991 0 57 0 C57 36.63 57 73.26 57 111 C11 115 11 115 6 115 C5.67 100.81 5.34 86.62 5 72 C3.02170928 73.97829072 3.74496068 77.82327027 3.68359375 80.53515625 C3.66281265 81.28840683 3.64203156 82.04165741 3.62062073 82.81773376 C3.55504575 85.2325599 3.49620379 87.64749798 3.4375 90.0625 C3.3943223 91.69597529 3.35070827 93.3294391 3.30664062 94.96289062 C3.19935638 98.97514464 3.09811179 102.98751164 3 107 C3.66 107 4.32 107 5 107 C5 108.65 5 110.3 5 112 C1.37 112 -2.26 112 -6 112 C-6 111.01 -6 110.02 -6 109 C-4.02 109 -2.04 109 0 109 C0 98.11 0 87.22 0 76 C-1.32 75.67 -2.64 75.34 -4 75 C-4.66 74.34 -5.32 73.68 -6 73 C-6.73204702 76.29261631 -7.13013918 79.35601315 -7.15771484 82.72680664 C-7.17310806 84.08830589 -7.17310806 84.08830589 -7.18881226 85.47731018 C-7.19611359 86.44514938 -7.20341492 87.41298859 -7.2109375 88.41015625 C-7.23898998 90.47201337 -7.26765431 92.53386223 -7.296875 94.59570312 C-7.33822491 97.83699451 -7.37512652 101.07812904 -7.40136719 104.31958008 C-7.4289248 107.45425874 -7.47477514 110.58824378 -7.5234375 113.72265625 C-7.52669037 114.69251968 -7.52994324 115.66238312 -7.53329468 116.66163635 C-7.54986115 117.56615036 -7.56642761 118.47066437 -7.58349609 119.40258789 C-7.59158295 120.19580948 -7.5996698 120.98903107 -7.60800171 121.80628967 C-8.10652513 124.59613853 -9.02958094 125.9791996 -11 128 C-14.5625 128.4375 -14.5625 128.4375 -18 128 C-18.66 127.01 -19.32 126.02 -20 125 C-20.350625 125.495 -20.70125 125.99 -21.0625 126.5 C-23.99435344 128.76982201 -26.40895535 128.3264586 -30 128 C-32.47814767 125.52185233 -32.25236169 124.79894402 -32.25878906 121.38598633 C-32.26509338 120.42771439 -32.27139771 119.46944244 -32.27789307 118.48213196 C-32.2738446 117.44259872 -32.26979614 116.40306549 -32.265625 115.33203125 C-32.26753845 114.26385666 -32.2694519 113.19568207 -32.27142334 112.09513855 C-32.27278665 109.82961797 -32.26908009 107.56408963 -32.26074219 105.29858398 C-32.25009724 101.84405724 -32.26060555 98.39005679 -32.2734375 94.93554688 C-32.2721149 92.73437386 -32.26955044 90.53320117 -32.265625 88.33203125 C-32.26967346 87.30261917 -32.27372192 86.27320709 -32.27789307 85.21260071 C-32.24252184 79.74766223 -31.81935119 75.16491581 -30 70 C-31.65 69.67 -33.3 69.34 -35 69 C-35.98498325 61.77678952 -32.76918038 56.04352766 -29 50 C-24.41982157 46.94654771 -20.45135577 47.77965246 -15.140625 48.5859375 C-13.21476562 48.97652344 -13.21476562 48.97652344 -11.25 49.375 C-9.95578125 49.63023438 -8.6615625 49.88546875 -7.328125 50.1484375 C-4 51 -4 51 -1 53 C-0.67 35.51 -0.34 18.02 0 0 Z M3 3 C2.67 22.47 2.34 41.94 2 62 C6.17211923 59.56814954 6.17211923 59.56814954 6.48101807 56.55122375 C6.47213562 55.5808165 6.46325317 54.61040924 6.45410156 53.6105957 C6.45379944 52.50968094 6.45349731 51.40876617 6.45318604 50.27449036 C6.42221832 48.49312935 6.42221832 48.49312935 6.390625 46.67578125 C6.38213531 44.85097481 6.38213531 44.85097481 6.37347412 42.98930359 C6.35105034 39.09663856 6.30084013 35.2048877 6.25 31.3125 C6.22994289 28.67644557 6.21169075 26.04037673 6.1953125 23.40429688 C6.15116572 16.93588502 6.08419287 10.46800781 6 4 C7.32 3.67 8.64 3.34 10 3 C7.69 3 5.38 3 3 3 Z M11 46 C11 48.64 11 51.28 11 54 C11.99 54.33 12.98 54.66 14 55 C14 52.03 14 49.06 14 46 C13.01 46 12.02 46 11 46 Z M13 61 C12.34 62.65 11.68 64.3 11 66 C11.99 66 12.98 66 14 66 C14 64.35 14 62.7 14 61 C13.67 61 13.34 61 13 61 Z " fill="#FFFFFF" transform="translate(53,0)"/>
<path d="M0 0 C2.31027554 1.86312544 2.86428756 3.18572533 3.34765625 6.0859375 C3.61899821 10.2743442 3.34464613 12.45523676 1.0625 16.0625 C-3.04346617 18.66015206 -6.26407994 19.0638661 -11 18 C-14.37882179 15.6066679 -15.67073608 13.96721278 -17 10.0625 C-17 6.11858134 -16.28875518 4.21856197 -14 1 C-8.78455042 -2.20950743 -5.6016192 -2.47763926 0 0 Z " fill="#FFFFFF" transform="translate(48,30)"/>
</svg>
