<?xml version="1.0" encoding="UTF-8"?>
<svg version="1.1" xmlns="http://www.w3.org/2000/svg" width="128" height="128">
<path d="M0 0 C0.495 6.435 0.495 6.435 1 13 C2.03125 12.67 3.0625 12.34 4.125 12 C7.73109421 10.84604985 9.85406376 11 14 11 C14 41.03 14 71.06 14 102 C-3.82 106.95 -3.82 106.95 -22 112 C-32.30844636 115.08018497 -32.30844636 115.08018497 -42.6015625 118.2109375 C-51.03163471 119.86808507 -58.91183999 117.21826848 -67 115 C-68.8375048 114.51546157 -70.67540929 114.03243678 -72.51367188 113.55078125 C-78.33317136 112.01268917 -84.13555759 110.41530763 -89.9375 108.8125 C-91.94976609 108.2606894 -93.96213542 107.70925514 -95.97460938 107.15820312 C-99.61900545 106.15816826 -103.26335708 105.15799392 -106.90600586 104.15161133 C-107.62670761 103.95271805 -108.34740936 103.75382477 -109.08995056 103.54890442 C-110.73937935 103.0748964 -112.37188175 102.54270608 -114 102 C-114 71.97 -114 41.94 -114 11 C-104 12 -104 12 -101 13 C-101 10.03 -101 7.06 -101 4 C-97.04570448 2.89445883 -95.11089347 3.01519453 -91.48852539 4.921875 C-90.62735611 5.36563477 -89.76618683 5.80939453 -88.87892151 6.26660156 C-87.96110397 6.75612305 -87.04328644 7.24564453 -86.09765625 7.75 C-84.13607815 8.76043693 -82.17448927 9.77085295 -80.21289062 10.78125 C-77.13191166 12.39021388 -74.05382003 14.00456009 -70.97680664 15.62109375 C-68.00294104 17.17734936 -65.01962184 18.71419716 -62.03515625 20.25 C-61.11936295 20.73952148 -60.20356964 21.22904297 -59.26002502 21.73339844 C-54.16502055 24.37060754 -54.16502055 24.37060754 -48.53735352 24.88720703 C-44.72784329 23.55517969 -41.69089863 21.42655764 -38.3671875 19.1796875 C-36 18 -36 18 -33.6953125 18.3203125 C-33.13585937 18.54460938 -32.57640625 18.76890625 -32 19 C-32 19.99 -32 20.98 -32 22 C-31.25838623 21.78794922 -30.51677246 21.57589844 -29.75268555 21.35742188 C-26.39876659 20.40088619 -23.04316946 19.4503755 -19.6875 18.5 C-18.52025391 18.16613281 -17.35300781 17.83226563 -16.15039062 17.48828125 C-14.47299805 17.01455078 -14.47299805 17.01455078 -12.76171875 16.53125 C-11.73006592 16.23798828 -10.69841309 15.94472656 -9.63549805 15.64257812 C-7 15 -7 15 -4 15 C-4 12.03 -4 9.06 -4 6 C-4.92280762 6.54527344 -4.92280762 6.54527344 -5.86425781 7.1015625 C-8.65431293 8.74339048 -11.45197643 10.37179231 -14.25 12 C-15.21808594 12.57234375 -16.18617187 13.1446875 -17.18359375 13.734375 C-18.11816406 14.27578125 -19.05273438 14.8171875 -20.015625 15.375 C-20.87446289 15.87773437 -21.73330078 16.38046875 -22.61816406 16.8984375 C-25 18 -25 18 -29 18 C-28.78442383 15.69018555 -28.78442383 15.69018555 -28 13 C-26.0222168 11.36254883 -26.0222168 11.36254883 -23.44921875 9.95703125 C-22.52302734 9.44076172 -21.59683594 8.92449219 -20.64257812 8.39257812 C-19.66740234 7.87115234 -18.69222656 7.34972656 -17.6875 6.8125 C-16.24213867 6.01295898 -16.24213867 6.01295898 -14.76757812 5.19726562 C-12.18900817 3.77663976 -9.60335962 2.37461471 -7 1 C-6.29979736 0.59483154 -5.59959473 0.18966309 -4.87817383 -0.2277832 C-3 -1 -3 -1 0 0 Z M-96 9 C-96 10.98 -96 12.96 -96 15 C-93.06520402 15.86458312 -90.12778481 16.71697187 -87.1875 17.5625 C-86.35412109 17.80935547 -85.52074219 18.05621094 -84.66210938 18.31054688 C-83.85966797 18.53935547 -83.05722656 18.76816406 -82.23046875 19.00390625 C-81.49207764 19.21861572 -80.75368652 19.4333252 -79.99291992 19.65454102 C-77.80050536 20.19661992 -77.80050536 20.19661992 -75 19 C-78.31089026 17.33012108 -81.62397175 15.66463741 -84.9375 14 C-85.88302734 13.52304687 -86.82855469 13.04609375 -87.80273438 12.5546875 C-89.15141602 11.87792969 -89.15141602 11.87792969 -90.52734375 11.1875 C-91.35999756 10.76855469 -92.19265137 10.34960938 -93.05053711 9.91796875 C-94.79165617 8.92899745 -94.79165617 8.92899745 -96 9 Z M-110 16 C-110 43.06 -110 70.12 -110 98 C-88.19603554 104.03086524 -88.19603554 104.03086524 -66.375 110 C-65.29089844 110.29777344 -64.20679688 110.59554687 -63.08984375 110.90234375 C-61.54103516 111.32193359 -61.54103516 111.32193359 -59.9609375 111.75 C-58.62748291 112.11351563 -58.62748291 112.11351563 -57.26708984 112.484375 C-54.89994898 113.11088771 -54.89994898 113.11088771 -52 113 C-51.67 103.76 -51.34 94.52 -51 85 C-50.34 85 -49.68 85 -49 85 C-48.67 94.24 -48.34 103.48 -48 113 C-40.63142288 111.66025871 -33.58427839 110.20925583 -26.40625 108.21484375 C-25.45230347 107.95369278 -24.49835693 107.69254181 -23.51550293 107.42347717 C-20.50910858 106.59920936 -17.50457479 105.76837269 -14.5 104.9375 C-12.45584252 104.37653988 -10.41157256 103.8159895 -8.3671875 103.25585938 C-4.64582817 102.23406182 -0.92457661 101.21190236 2.79492188 100.18334961 C3.90764465 99.87596107 3.90764465 99.87596107 5.04284668 99.56236267 C6.70798176 99.08390766 8.35639585 98.54786805 10 98 C10 70.94 10 43.88 10 16 C-3.8602075 19.24152228 -3.8602075 19.24152228 -17.62890625 22.796875 C-18.41777222 23.00908691 -19.20663818 23.22129883 -20.01940918 23.43994141 C-22.86789771 24.20702749 -25.71513609 24.97874989 -28.5625 25.75 C-38.1840625 28.34875 -38.1840625 28.34875 -48 31 C-48 47.17 -48 63.34 -48 80 C-49.32 80 -50.64 80 -52 80 C-52 63.83 -52 47.66 -52 31 C-59.25981236 29.0441814 -66.51972036 27.08882896 -73.78089905 25.1381073 C-77.16206544 24.22960596 -80.54298717 23.3202162 -83.92333984 22.40869141 C-87.79971816 21.36345485 -91.67716704 20.32224158 -95.5546875 19.28125 C-96.76929657 18.95314331 -97.98390564 18.62503662 -99.23532104 18.2869873 C-100.91683762 17.83652039 -100.91683762 17.83652039 -102.63232422 17.37695312 C-103.62271698 17.11047974 -104.61310974 16.84400635 -105.6335144 16.56945801 C-107.91840953 15.92201461 -107.91840953 15.92201461 -110 16 Z " fill="#FFFFFF" transform="translate(114,5)"/>
<path d="M0 0 C0 7.92 0 15.84 0 24 C-10.13528359 27.37842786 -10.13528359 27.37842786 -13.72192383 28.36621094 C-14.52918411 28.58944031 -15.3364444 28.81266968 -16.16816711 29.04266357 C-17.00599228 29.27092834 -17.84381744 29.49919312 -18.70703125 29.734375 C-20.03875618 30.09779999 -20.03875618 30.09779999 -21.39738464 30.46856689 C-23.25660796 30.9742483 -25.1162587 31.47836066 -26.97631836 31.98095703 C-29.82457684 32.75327469 -32.6690222 33.53872839 -35.51367188 34.32421875 C-37.32790401 34.81592026 -39.1423499 35.30683394 -40.95703125 35.796875 C-41.80497757 36.03323669 -42.65292389 36.26959839 -43.52656555 36.51312256 C-44.31806503 36.72374329 -45.10956451 36.93436401 -45.92504883 37.15136719 C-46.61738113 37.339953 -47.30971344 37.52853882 -48.02302551 37.72283936 C-50 38 -50 38 -54 37 C-54 29.08 -54 21.16 -54 13 C-41.10286998 9.16994321 -28.19500021 5.43791613 -15.1875 2 C-14.01985107 1.68538818 -12.85220215 1.37077637 -11.64916992 1.04663086 C-10.01878784 0.62136108 -10.01878784 0.62136108 -8.35546875 0.1875 C-7.39278076 -0.06644531 -6.43009277 -0.32039063 -5.43823242 -0.58203125 C-3 -1 -3 -1 0 0 Z M-11.08837891 5.99389648 C-11.90577545 6.21089706 -12.723172 6.42789764 -13.56533813 6.651474 C-14.44354218 6.88894852 -15.32174622 7.12642303 -16.2265625 7.37109375 C-17.12998383 7.61287857 -18.03340515 7.85466339 -18.96420288 8.10377502 C-20.87278707 8.61560714 -22.78086707 9.12932247 -24.68847656 9.64477539 C-27.61902556 10.43588718 -30.55155027 11.2193256 -33.484375 12.00195312 C-35.33606077 12.4995415 -37.18762748 12.9975732 -39.0390625 13.49609375 C-39.921315 13.73154404 -40.8035675 13.96699432 -41.71255493 14.20957947 C-45.67136782 14.99336094 -45.67136782 14.99336094 -49 17 C-49.07313567 19.53049402 -49.09247527 22.03304837 -49.0625 24.5625 C-49.05798828 25.27341797 -49.05347656 25.98433594 -49.04882812 26.71679688 C-49.03700864 28.47790013 -49.01907263 30.23896036 -49 32 C-40.47419359 30.43821564 -32.1443378 28.28740283 -23.77416992 26.05883789 C-21.41254844 25.43086519 -19.04915154 24.80991459 -16.68554688 24.18945312 C-15.18478565 23.79208257 -13.68413049 23.39431116 -12.18359375 22.99609375 C-11.47641708 22.81066513 -10.76924042 22.62523651 -10.04063416 22.43418884 C-6.74771298 21.74879962 -6.74771298 21.74879962 -4 20 C-3.92686433 17.46950598 -3.90752473 14.96695163 -3.9375 12.4375 C-3.94201172 11.72658203 -3.94652344 11.01566406 -3.95117188 10.28320312 C-3.96299136 8.52209987 -3.98092737 6.76103964 -4 5 C-6.69908602 5 -8.51781495 5.305734 -11.08837891 5.99389648 Z " fill="#FFFFFF" transform="translate(122,78)"/>
<path d="M0 0 C6.06813746 0.50025759 11.74612169 1.83959662 17.609375 3.43359375 C18.49860657 3.67159195 19.38783813 3.90959015 20.30401611 4.15480042 C22.17033512 4.65570092 24.03594895 5.15923561 25.90087891 5.6652832 C28.75361722 6.4384804 31.60900072 7.20125077 34.46484375 7.96289062 C36.28402032 8.45250806 38.10303656 8.9427217 39.921875 9.43359375 C40.77295837 9.6607457 41.62404175 9.88789764 42.50091553 10.12193298 C43.2956427 10.3387825 44.09036987 10.55563202 44.90917969 10.77905273 C45.6045282 10.96700912 46.29987671 11.15496552 47.01629639 11.34861755 C49 12 49 12 53 14 C53 18.29 53 22.58 53 27 C48.43635025 28.14091244 46.52685935 27.58155024 42.046875 26.34765625 C41.38665344 26.16867294 40.72643188 25.98968964 40.04620361 25.80528259 C37.94487362 25.23339003 35.8475286 24.64816421 33.75 24.0625 C32.32315906 23.6716401 30.89607792 23.28165593 29.46875 22.89257812 C25.97632559 21.93851904 22.48734854 20.97247024 19 20 C18.67 18.68 18.34 17.36 18 16 C22.15461806 14.8487203 24.84516324 15.2316631 28.95703125 16.43359375 C30.62475586 16.9121582 30.62475586 16.9121582 32.32617188 17.40039062 C33.47666016 17.74263672 34.62714844 18.08488281 35.8125 18.4375 C36.98232422 18.77587891 38.15214844 19.11425781 39.35742188 19.46289062 C42.24134521 20.29863984 45.1218439 21.14464055 48 22 C48 20.35 48 18.7 48 17 C46.71351562 16.76539062 45.42703125 16.53078125 44.1015625 16.2890625 C36.1017453 14.68909906 28.25095724 12.48794166 20.375 10.375 C18.78262759 9.95023766 17.19018022 9.52575624 15.59765625 9.1015625 C11.73089912 8.07094448 7.86517576 7.03653222 4 6 C4 7.32 4 8.64 4 10 C7.3 10.99 10.6 11.98 14 13 C14 14.32 14 15.64 14 17 C12.43675768 16.88465396 10.87440317 16.75724874 9.3125 16.625 C8.44238281 16.55539063 7.57226562 16.48578125 6.67578125 16.4140625 C3.87516565 15.98068257 1.58333448 15.14504555 -1 14 C-1.02685938 11.85423363 -1.04633088 9.70837355 -1.0625 7.5625 C-1.07410156 6.36753906 -1.08570313 5.17257813 -1.09765625 3.94140625 C-1 1 -1 1 0 0 Z " fill="#FFFFFF" transform="translate(7,25)"/>
<path d="M0 0 C5.87893306 -0.30734369 10.75148678 0.78325746 16.375 2.4375 C17.19355469 2.66759766 18.01210938 2.89769531 18.85546875 3.13476562 C24.84946646 4.84946646 24.84946646 4.84946646 26 6 C26.08713831 7.70772358 26.10700007 9.41898649 26.09765625 11.12890625 C26.09443359 12.16337891 26.09121094 13.19785156 26.08789062 14.26367188 C26.07951172 15.35228516 26.07113281 16.44089844 26.0625 17.5625 C26.05798828 18.65498047 26.05347656 19.74746094 26.04882812 20.87304688 C26.03699826 23.58208495 26.02051543 26.29101599 26 29 C20.12106694 29.30734369 15.24851322 28.21674254 9.625 26.5625 C8.80644531 26.33240234 7.98789063 26.10230469 7.14453125 25.86523438 C1.15053354 24.15053354 1.15053354 24.15053354 0 23 C-0.08713831 21.29227642 -0.10700007 19.58101351 -0.09765625 17.87109375 C-0.09443359 16.83662109 -0.09121094 15.80214844 -0.08789062 14.73632812 C-0.07951172 13.64771484 -0.07113281 12.55910156 -0.0625 11.4375 C-0.05798828 10.34501953 -0.05347656 9.25253906 -0.04882812 8.12695312 C-0.03699826 5.41791505 -0.02051543 2.70898401 0 0 Z M4 5 C4 9.62 4 14.24 4 19 C9.63555833 21.25422333 15.05064416 22.7915371 21 24 C21 19.05 21 14.1 21 9 C12.585 7.02 12.585 7.02 4 5 Z " fill="#FFFFFF" transform="translate(6,53)"/>
<path d="M0 0 C5.93304332 0.47014071 11.33068213 1.8093397 17 3.5625 C19.64 4.366875 22.28 5.17125 25 6 C25 13.59 25 21.18 25 29 C20.94009562 30.0149761 19.87071992 29.94163653 16.05078125 28.8203125 C15.12072266 28.55089844 14.19066406 28.28148438 13.23242188 28.00390625 C11.78706055 27.56884766 11.78706055 27.56884766 10.3125 27.125 C9.33732422 26.84269531 8.36214844 26.56039062 7.35742188 26.26953125 C0.1541718 24.1541718 0.1541718 24.1541718 -1 23 C-1.0991657 21.37742456 -1.13079777 19.75060169 -1.1328125 18.125 C-1.13410156 17.14015625 -1.13539062 16.1553125 -1.13671875 15.140625 C-1.13285156 14.10421875 -1.12898438 13.0678125 -1.125 12 C-1.13080078 10.44539063 -1.13080078 10.44539063 -1.13671875 8.859375 C-1.13542969 7.87453125 -1.13414063 6.8896875 -1.1328125 5.875 C-1.13168457 4.96492188 -1.13055664 4.05484375 -1.12939453 3.1171875 C-1 1 -1 1 0 0 Z M3 5 C3 9.95 3 14.9 3 20 C5.248125 20.66 7.49625 21.32 9.8125 22 C11.07707031 22.37125 12.34164062 22.7425 13.64453125 23.125 C16.90587415 24.12616509 16.90587415 24.12616509 20 24 C20 19.38 20 14.76 20 10 C14.36444167 7.74577667 8.94935584 6.2084629 3 5 Z " fill="#FFFFFF" transform="translate(35,86)"/>
<path d="M0 0 C1 1 1 1 1.11352539 3.13305664 C1.10828857 4.04949951 1.10305176 4.96594238 1.09765625 5.91015625 C1.09443359 6.89951172 1.09121094 7.88886719 1.08789062 8.90820312 C1.07951172 9.94912109 1.07113281 10.99003906 1.0625 12.0625 C1.05798828 13.10728516 1.05347656 14.15207031 1.04882812 15.22851562 C1.03699913 17.8190666 1.02051689 20.40950559 1 23 C-16.70616114 29.76777251 -16.70616114 29.76777251 -24 29 C-25 28 -25 28 -25.11352539 25.86694336 C-25.10828857 24.95050049 -25.10305176 24.03405762 -25.09765625 23.08984375 C-25.09443359 22.10048828 -25.09121094 21.11113281 -25.08789062 20.09179688 C-25.07951172 19.05087891 -25.07113281 18.00996094 -25.0625 16.9375 C-25.05798828 15.89271484 -25.05347656 14.84792969 -25.04882812 13.77148438 C-25.03699913 11.1809334 -25.02051689 8.59049441 -25 6 C-7.29383886 -0.76777251 -7.29383886 -0.76777251 0 0 Z M-12.625 7 C-13.33140625 7.19078125 -14.0378125 7.3815625 -14.765625 7.578125 C-16.51102083 8.0498536 -18.2555903 8.52463775 -20 9 C-20 13.95 -20 18.9 -20 24 C-17.35307023 23.35841048 -14.70750071 22.71195217 -12.0625 22.0625 C-11.30775391 21.88009766 -10.55300781 21.69769531 -9.77539062 21.50976562 C-6.08720179 20.86160821 -6.08720179 20.86160821 -3 19 C-2.92728259 16.64686445 -2.91629132 14.29166332 -2.9375 11.9375 C-2.94652344 10.64714844 -2.95554687 9.35679688 -2.96484375 8.02734375 C-2.97644531 7.02832031 -2.98804687 6.02929688 -3 5 C-6.31581983 5 -9.44433805 6.13147976 -12.625 7 Z " fill="#FFFFFF" transform="translate(121,24)"/>
<path d="M0 0 C-0.33 1.65 -0.66 3.3 -1 5 C-7.74015939 6.88515621 -14.48492005 8.75308902 -21.2331543 10.60913086 C-23.52819578 11.2425422 -25.82215552 11.87988672 -28.11499023 12.52124023 C-31.41113124 13.44250415 -34.71090537 14.34954693 -38.01171875 15.25390625 C-39.54792122 15.68818687 -39.54792122 15.68818687 -41.11515808 16.13124084 C-42.55608574 16.5217588 -42.55608574 16.5217588 -44.02612305 16.92016602 C-44.86773483 17.15333023 -45.70934662 17.38649445 -46.57646179 17.62672424 C-49.31376395 18.04832623 -51.3353342 17.69076224 -54 17 C-53.67 15.68 -53.34 14.36 -53 13 C-46.25803851 11.13970429 -39.51341226 9.2893253 -32.7668457 7.44580078 C-30.47227497 6.8175467 -28.17832281 6.18702882 -25.88500977 5.55419922 C-22.58770366 4.64474523 -19.28825549 3.7434675 -15.98828125 2.84375 C-14.96414627 2.55939087 -13.94001129 2.27503174 -12.88484192 1.98205566 C-11.92422348 1.72178589 -10.96360504 1.46151611 -9.97387695 1.19335938 C-8.71145927 0.84694397 -8.71145927 0.84694397 -7.42353821 0.49353027 C-4.88639697 -0.02313417 -2.58207825 -0.08797283 0 0 Z " fill="#FFFFFF" transform="translate(122,57)"/>
<path d="M0 0 C0 1.32 0 2.64 0 4 C-11.81179824 7.47638209 -23.66945279 10.76875347 -35.58102417 13.88525391 C-36.98655529 14.25373621 -38.39144532 14.62467256 -39.79568481 14.99804688 C-41.78257092 15.52538877 -43.77168577 16.04327327 -45.76171875 16.55859375 C-46.91631592 16.86079834 -48.07091309 17.16300293 -49.26049805 17.47436523 C-52 18 -52 18 -54 17 C-54 15.68 -54 14.36 -54 13 C-47.27684707 11.13788849 -40.55048527 9.28773759 -33.82177734 7.44580078 C-31.53391412 6.81800774 -29.24679481 6.187497 -26.96044922 5.55419922 C-23.67087298 4.64352557 -20.37873091 3.74271156 -17.0859375 2.84375 C-16.06696381 2.55939087 -15.04799011 2.27503174 -13.99813843 1.98205566 C-9.22977599 0.69001487 -4.99184922 -0.38455727 0 0 Z " fill="#FFFFFF" transform="translate(122,64)"/>
<path d="M0 0 C0 1.32 0 2.64 0 4 C-11.15910385 7.24754106 -22.3383287 10.42178323 -33.5625 13.4375 C-34.5429126 13.70836426 -35.5233252 13.97922852 -36.53344727 14.25830078 C-37.45182373 14.50177246 -38.3702002 14.74524414 -39.31640625 14.99609375 C-40.12537354 15.21450928 -40.93434082 15.4329248 -41.76782227 15.65795898 C-44.17034648 16.02610253 -45.70988396 15.75485735 -48 15 C-47.67 13.68 -47.34 12.36 -47 11 C-41.27344379 9.42372977 -35.54427901 7.85746479 -29.8125 6.30029297 C-27.86416472 5.76948819 -25.91656203 5.23598658 -23.96972656 4.69970703 C-21.16661131 3.92806295 -18.36097966 3.16624762 -15.5546875 2.40625 C-14.68883026 2.16563843 -13.82297302 1.92502686 -12.93087769 1.67712402 C-8.50587569 0.48927256 -4.62873825 -0.28970766 0 0 Z " fill="#FFFFFF" transform="translate(122,51)"/>
<path d="M0 0 C0 1.32 0 2.64 0 4 C-5.82248419 6.28477228 -11.63818805 8.10713516 -17.6875 9.6875 C-18.92983398 10.02491211 -18.92983398 10.02491211 -20.19726562 10.36914062 C-24.20774092 11.42554284 -27.81308659 12.31551079 -32 12 C-31.67 10.35 -31.34 8.7 -31 7 C-26.77363854 5.82300462 -22.54349462 4.66021981 -18.3125 3.5 C-17.11431641 3.16613281 -15.91613281 2.83226563 -14.68164062 2.48828125 C-13.52470703 2.17246094 -12.36777344 1.85664062 -11.17578125 1.53125 C-10.11270752 1.23798828 -9.04963379 0.94472656 -7.9543457 0.64257812 C-5.1903768 0.04140747 -2.81542433 -0.12745656 0 0 Z " fill="#FFFFFF" transform="translate(100,76)"/>
<path d="M0 0 C8.1698614 1.43066697 16.05394988 3.64137417 24 6 C24.33 7.32 24.66 8.64 25 10 C21.51664404 11.19784792 19.30493975 10.78454679 15.796875 9.78515625 C14.8171875 9.51123047 13.8375 9.23730469 12.828125 8.95507812 C11.81234375 8.66052734 10.7965625 8.36597656 9.75 8.0625 C8.71875 7.77181641 7.6875 7.48113281 6.625 7.18164062 C4.0807248 6.46311846 1.53937099 5.73563156 -1 5 C-0.67 3.35 -0.34 1.7 0 0 Z " fill="#FFFFFF" transform="translate(7,78)"/>
<path d="M0 0 C6.06370342 0.60497958 11.65514242 1.8633028 17.5 3.5625 C18.32242188 3.79646484 19.14484375 4.03042969 19.9921875 4.27148438 C21.99629058 4.84242072 23.99836591 5.42046705 26 6 C26 7.32 26 8.64 26 10 C22.50663182 11.16445606 21.37173851 10.77002998 17.89453125 9.78515625 C16.91162109 9.51123047 15.92871094 9.23730469 14.91601562 8.95507812 C13.89185547 8.66052734 12.86769531 8.36597656 11.8125 8.0625 C10.77673828 7.77181641 9.74097656 7.48113281 8.67382812 7.18164062 C6.11365361 6.46196023 3.55596089 5.7344788 1 5 C0.67 3.35 0.34 1.7 0 0 Z " fill="#FFFFFF" transform="translate(34,73)"/>
<path d="M0 0 C0 1.32 0 2.64 0 4 C-3.39043406 5.0393868 -6.78800806 6.05317093 -10.1875 7.0625 C-11.14720703 7.35705078 -12.10691406 7.65160156 -13.09570312 7.95507812 C-14.02705078 8.22900391 -14.95839844 8.50292969 -15.91796875 8.78515625 C-16.77156982 9.04176025 -17.6251709 9.29836426 -18.50463867 9.56274414 C-21.29795485 10.05220988 -23.27666049 9.71868866 -26 9 C-25.67 7.68 -25.34 6.36 -25 5 C-21.39963863 3.96540315 -17.79421232 2.9497136 -14.1875 1.9375 C-13.16333984 1.64294922 -12.13917969 1.34839844 -11.08398438 1.04492188 C-10.10107422 0.77099609 -9.11816406 0.49707031 -8.10546875 0.21484375 C-7.19949951 -0.04176025 -6.29353027 -0.29836426 -5.36010742 -0.56274414 C-3 -1 -3 -1 0 0 Z " fill="#FFFFFF" transform="translate(94,38)"/>
<path d="M0 0 C2.66835522 0.5973477 5.33449363 1.20267117 8 1.8125 C8.74378906 1.97814453 9.48757812 2.14378906 10.25390625 2.31445312 C15.36331217 3.49183797 20.12507025 5.06664718 25 7 C24.67 8.32 24.34 9.64 24 11 C15.45269656 9.67429579 7.27758852 7.48931859 -1 5 C-0.67 3.35 -0.34 1.7 0 0 Z " fill="#FFFFFF" transform="translate(7,91)"/>
<path d="M0 0 C-0.33 1.65 -0.66 3.3 -1 5 C-3.85120792 5.84480235 -6.70527344 6.67601416 -9.5625 7.5 C-10.76229492 7.85771484 -10.76229492 7.85771484 -11.98632812 8.22265625 C-16.83294329 9.60740344 -20.960647 10.27056929 -26 10 C-26 8.68 -26 7.36 -26 6 C-22.60732806 4.98905456 -19.21040545 3.99319949 -15.8125 3 C-14.85279297 2.71382812 -13.89308594 2.42765625 -12.90429688 2.1328125 C-11.97294922 1.86210938 -11.04160156 1.59140625 -10.08203125 1.3125 C-9.22843018 1.06113281 -8.3748291 0.80976562 -7.49536133 0.55078125 C-4.91904455 -0.01786865 -2.62952773 -0.09883894 0 0 Z " fill="#FFFFFF" transform="translate(94,44)"/>
<path d="M0 0 C9.05730307 0.49403471 17.39370934 3.32226777 26 6 C26 7.32 26 8.64 26 10 C16.83404773 9.75763107 8.60321558 6.89264444 0 4 C0 2.68 0 1.36 0 0 Z " fill="#FFFFFF" transform="translate(6,85)"/>
<path d="M0 0 C8.68518048 0.40871438 16.69293749 2.61864208 25 5 C25.33 6.32 25.66 7.64 26 9 C22.16233287 10.01275945 19.70571912 9.92380513 15.91796875 8.78515625 C14.98662109 8.51123047 14.05527344 8.23730469 13.09570312 7.95507812 C12.13599609 7.66052734 11.17628906 7.36597656 10.1875 7.0625 C9.20845703 6.77181641 8.22941406 6.48113281 7.22070312 6.18164062 C4.81058802 5.46448442 2.40410265 4.73701258 0 4 C0 2.68 0 1.36 0 0 Z " fill="#FFFFFF" transform="translate(34,67)"/>
<path d="M0 0 C7.30696249 0.45965708 13.99757448 1.88329723 21 4 C21.33 5.32 21.66 6.64 22 8 C16.96107915 9.68637231 13.03530282 8.11883569 8.1875 6.5625 C7.39923828 6.31951172 6.61097656 6.07652344 5.79882812 5.82617188 C3.86267871 5.22772569 1.93087819 4.61524123 0 4 C0 2.68 0 1.36 0 0 Z " fill="#FFFFFF" transform="translate(22,47)"/>
<path d="M0 0 C-0.33 1.65 -0.66 3.3 -1 5 C-3.413762 5.69951063 -5.83010234 6.38483919 -8.25 7.0625 C-8.93191406 7.26166016 -9.61382812 7.46082031 -10.31640625 7.66601562 C-16.58342161 9.40009269 -16.58342161 9.40009269 -20 8 C-19.67 6.68 -19.34 5.36 -19 4 C-16.77332235 3.32506659 -14.54354023 2.66036956 -12.3125 2 C-10.45044922 1.443125 -10.45044922 1.443125 -8.55078125 0.875 C-5.4989981 0.12296543 -3.11101638 -0.19034899 0 0 Z " fill="#FFFFFF" transform="translate(94,31)"/>
<path d="M0 0 C-0.33 1.32 -0.66 2.64 -1 4 C-3.22481229 4.70146314 -5.45507368 5.38565954 -7.6875 6.0625 C-8.92886719 6.44535156 -10.17023438 6.82820313 -11.44921875 7.22265625 C-14.8531786 7.96785758 -16.71559076 7.99851065 -20 7 C-19.67 5.68 -19.34 4.36 -19 3 C-16.586238 2.30048937 -14.16989766 1.61516081 -11.75 0.9375 C-11.06808594 0.73833984 -10.38617188 0.53917969 -9.68359375 0.33398438 C-3.41657839 -1.40009269 -3.41657839 -1.40009269 0 0 Z " fill="#FFFFFF" transform="translate(88,53)"/>
<path d="M0 0 C7.03128878 0.43384548 13.329015 1.74321997 20 4 C20 5.32 20 6.64 20 8 C12.87615459 8.66268329 6.69120815 6.25388064 0 4 C0 2.68 0 1.36 0 0 Z " fill="#FFFFFF" transform="translate(40,62)"/>
<path d="M0 0 C6.76215448 0.40939975 12.67162748 1.56953809 19 4 C19 5.32 19 6.64 19 8 C12.31006781 7.46048934 6.36539272 6.11293829 0 4 C0 2.68 0 1.36 0 0 Z " fill="#FFFFFF" transform="translate(34,80)"/>
<path d="M0 0 C6.43681228 0.51085812 11.95942424 1.72942897 18 4 C18 5.32 18 6.64 18 8 C11.56318772 7.48914188 6.04057576 6.27057103 0 4 C0 2.68 0 1.36 0 0 Z " fill="#FFFFFF" transform="translate(6,98)"/>
</svg>
