<?xml version="1.0" encoding="UTF-8"?>
<svg version="1.1" xmlns="http://www.w3.org/2000/svg" width="128" height="128">
<path d="M0 0 C2.24599495 1.43669429 4.36835124 2.95883208 6.48828125 4.57421875 C7.51953125 5.31671875 8.55078125 6.05921875 9.61328125 6.82421875 C18.009256 14.85515112 24.4036941 26.09403907 24.7265625 37.91796875 C25.03479302 52.19515087 23.34115622 62.9562726 14.48828125 74.57421875 C13.74578125 75.60546875 13.00328125 76.63671875 12.23828125 77.69921875 C4.20734888 86.0951935 -7.03153907 92.4896316 -18.85546875 92.8125 C-33.13265087 93.12073052 -43.8937726 91.42709372 -55.51171875 82.57421875 C-56.54296875 81.83171875 -57.57421875 81.08921875 -58.63671875 80.32421875 C-67.0326935 72.29328638 -73.4271316 61.05439843 -73.75 49.23046875 C-74.05823052 34.95328663 -72.36459372 24.1921649 -63.51171875 12.57421875 C-62.76921875 11.54296875 -62.02671875 10.51171875 -61.26171875 9.44921875 C-45.77830917 -6.73798217 -19.65600268 -11.15776202 0 0 Z M-53.51171875 9.57421875 C-54.12789062 10.05246094 -54.7440625 10.53070313 -55.37890625 11.0234375 C-61.81968601 16.70563654 -66.74779185 26.15159344 -68.51171875 34.57421875 C-69.28938777 47.43762932 -68.42271495 57.38592977 -61.51171875 68.57421875 C-52.47254036 64.27828327 -44.04582615 57.61079729 -39.51171875 48.57421875 C-36.50791899 36.78006986 -37.7619539 23.60633928 -38.51171875 11.57421875 C-34.4915462 11.54936511 -30.47140387 11.53128637 -26.45117188 11.51928711 C-25.08560405 11.51428089 -23.72004151 11.50747393 -22.35449219 11.4987793 C-20.38348757 11.48655044 -18.41244265 11.48149009 -16.44140625 11.4765625 C-14.66612549 11.46870728 -14.66612549 11.46870728 -12.85498047 11.46069336 C-9.51171875 11.57421875 -9.51171875 11.57421875 -6.22705078 12.20141602 C-4.88296143 12.38595337 -4.88296143 12.38595337 -3.51171875 12.57421875 C-1.11376494 10.7613468 -1.11376494 10.7613468 0.48828125 8.57421875 C-0.19769408 5.40541017 -0.19769408 5.40541017 -2.875 4.22265625 C-3.84824219 3.80242188 -4.82148437 3.3821875 -5.82421875 2.94921875 C-6.78972656 2.52382813 -7.75523438 2.0984375 -8.75 1.66015625 C-24.09909289 -4.37527207 -40.90771887 -0.27415378 -53.51171875 9.57421875 Z M4.48828125 11.57421875 C-15.64171875 31.70421875 -35.77171875 51.83421875 -56.51171875 72.57421875 C-56.18171875 73.23421875 -55.85171875 73.89421875 -55.51171875 74.57421875 C-35.05171875 54.11421875 -14.59171875 33.65421875 6.48828125 12.57421875 C5.82828125 12.24421875 5.16828125 11.91421875 4.48828125 11.57421875 Z M-34.51171875 15.57421875 C-34.51171875 24.48421875 -34.51171875 33.39421875 -34.51171875 42.57421875 C-30.36732943 39.02188505 -26.48125844 35.6676863 -22.671875 31.83203125 C-21.41987305 30.57519531 -21.41987305 30.57519531 -20.14257812 29.29296875 C-18.87124023 28.0090625 -18.87124023 28.0090625 -17.57421875 26.69921875 C-16.69958984 25.82007813 -15.82496094 24.9409375 -14.92382812 24.03515625 C-12.78414827 21.88378415 -10.64685278 19.73010083 -8.51171875 17.57421875 C-10.33000458 15.33042474 -10.33000458 15.33042474 -12.94189453 15.34716797 C-14.43438721 15.36287842 -14.43438721 15.36287842 -15.95703125 15.37890625 C-17.41133545 15.38639893 -17.41133545 15.38639893 -18.89501953 15.39404297 C-20.12978027 15.41225098 -21.36454102 15.43045898 -22.63671875 15.44921875 C-28.51484375 15.51109375 -28.51484375 15.51109375 -34.51171875 15.57421875 Z M6.42578125 18.76171875 C2.46429795 22.76138502 2.92711303 27.14165653 2.75 32.50390625 C2.31099128 37.65406825 0.27387759 40.00505833 -3.57421875 43.38671875 C-6.11653281 44.94491124 -7.94486728 45.61529494 -10.9375 45.3984375 C-17.43295405 45.09080436 -21.49468386 46.71676668 -26.35961914 50.84057617 C-31.60440215 55.79319697 -35.2172178 59.83578296 -35.46972656 67.27905273 C-35.34913246 70.43187925 -35.02143248 73.4593015 -34.51171875 76.57421875 C-35.83171875 76.24421875 -37.15171875 75.91421875 -38.51171875 75.57421875 C-38.84171875 72.60421875 -39.17171875 69.63421875 -39.51171875 66.57421875 C-44.04458991 70.30717147 -47.88554163 73.95908423 -51.51171875 78.57421875 C-41.70353445 87.43322392 -30.32213478 88.27435214 -17.6953125 87.75341797 C-5.80961202 86.77800382 3.95152599 78.99606356 11.47265625 70.3046875 C19.47511792 59.46414349 20.60788365 47.63139999 19.48828125 34.57421875 C18.02090601 27.99003762 15.03175186 22.26908224 11.48828125 16.57421875 C9.13227286 16.38047269 9.13227286 16.38047269 6.42578125 18.76171875 Z M-6.86523438 32.79101562 C-7.42919922 33.35884766 -7.99316406 33.92667969 -8.57421875 34.51171875 C-9.14205078 35.07568359 -9.70988281 35.63964844 -10.29492188 36.22070312 C-13.17333879 38.5217276 -13.17333879 38.5217276 -14.51171875 41.57421875 C-10.37141442 41.33067144 -8.00859105 40.94147219 -4.63671875 38.44921875 C-2.14446531 35.07734645 -1.75526606 32.71452308 -1.51171875 28.57421875 C-3.80691996 28.57421875 -5.32149985 31.25097867 -6.86523438 32.79101562 Z " fill="#FFFFFF" transform="translate(88.51171875,20.42578125)"/>
<path d="M0 0 C11.63695191 9.92515134 17.49013025 22.18682531 20.51171875 37.04296875 C21.93762401 55.93621343 17.0840776 71.93525377 4.76171875 86.35546875 C2.24936613 88.93852548 -0.35456946 91.19849884 -3.23828125 93.35546875 C-3.81578125 93.80277344 -4.39328125 94.25007813 -4.98828125 94.7109375 C-16.6518083 102.88043382 -32.70084571 106.00080886 -46.640625 103.82421875 C-62.9063561 100.57460472 -76.08568011 93.9287576 -86.23828125 80.35546875 C-86.68558594 79.77796875 -87.13289063 79.20046875 -87.59375 78.60546875 C-95.76324632 66.9419417 -98.88362136 50.89290429 -96.70703125 36.953125 C-93.45741722 20.6873939 -86.8115701 7.50806989 -73.23828125 -2.64453125 C-72.66078125 -3.09183594 -72.08328125 -3.53914062 -71.48828125 -4 C-49.78131013 -19.20423623 -20.06305706 -15.74731623 0 0 Z M-81.23828125 12.35546875 C-88.95040067 22.76164908 -94.08945139 37.26368814 -92.23828125 50.35546875 C-89.28149259 67.11643639 -82.45430795 80.04316446 -68.4921875 90.390625 C-56.1707657 98.26496648 -41.75763879 101.23329682 -27.45556641 98.27294922 C-11.94932241 94.71574085 0.02355924 86.20796038 8.63671875 72.73046875 C16.38023228 58.52487419 17.44823383 43.73421949 13.078125 28.32421875 C8.74135699 14.45188638 -1.26025238 3.71510949 -13.89453125 -3.171875 C-38.1549182 -13.85664823 -64.15240196 -8.22457649 -81.23828125 12.35546875 Z " fill="#FFFFFF" transform="translate(102.23828125,18.64453125)"/>
</svg>
