<?xml version="1.0" encoding="UTF-8"?>
<svg version="1.1" xmlns="http://www.w3.org/2000/svg" width="128" height="128">
<path d="M0 0 C6.12316996 1.64930546 10.68053804 5.65080334 14 11 C16.41800005 16.73066011 16.00483453 21.74920755 15.6796875 27.85546875 C15.66679899 31.09663549 15.66679899 31.09663549 18.0078125 32.92578125 C18.66523437 33.28027344 19.32265625 33.63476562 20 34 C20.99 33.34 21.98 32.68 23 32 C24.2375 32.0825 25.475 32.165 26.75 32.25 C29.44855687 32.34866753 30.61983318 32.27560068 32.83203125 30.671875 C33.40308594 30.12015625 33.97414062 29.5684375 34.5625 29 C37.19881319 26.46577639 37.81397275 26.03207366 41.625 25.375 C45.60801384 26.11259515 47.3018166 26.98438326 50 30 C50.8125 33.25 50.8125 33.25 51 36 C51.7425 35.9175 52.485 35.835 53.25 35.75 C56 36 56 36 58.3125 37.5625 C60.56398777 40.814649 60.29754384 43.13193005 60 47 C60.763125 47.0825 61.52625 47.165 62.3125 47.25 C65 48 65 48 66.8125 49.75 C68.19608294 52.37152557 68.24360427 54.07674878 68 57 C68.94875 57.103125 69.8975 57.20625 70.875 57.3125 C74 58 74 58 76 61 C76.64279985 65.21391016 76.96044415 67.57987803 74.5390625 71.16015625 C73.335528 72.518576 72.0981531 73.8479956 70.82421875 75.140625 C69.01526241 76.98444345 67.5061478 78.90529599 66 81 C69.36249553 82.04877837 72.24842373 81.98032166 75.75 81.8125 C82.44280175 81.77993162 86.84886842 83.03174659 91.75 87.6484375 C96.56188033 92.94613267 98.28325221 97.39264468 98.25 104.625 C98.25773437 106.31496094 98.25773437 106.31496094 98.265625 108.0390625 C98 111 98 111 96 114 C93.74609375 114.5625 93.74609375 114.5625 91 114 C88.29232635 111.55106771 85.94297203 109.00885054 83.54882812 106.265625 C80.30762612 102.71851862 80.30762612 102.71851862 75.68359375 101.5625 C73.08780874 101.71748546 73.08780874 101.71748546 72 103 C72 106.72316294 72.14752934 108.92378375 74.48828125 111.87890625 C76.27650377 113.65181209 78.1014574 115.34602948 80 117 C83.9 120.4 83.9 120.4 84.4375 123.625 C84.293125 124.40875 84.14875 125.1925 84 126 C79.09528175 129.26981217 73.73117259 128.53644862 68 128 C61.99888167 126.38356974 57.11796835 122.38558169 54 117 C54 115.68 54 114.36 54 113 C56.25 112.625 56.25 112.625 59 113 C59.556875 113.9075 60.11375 114.815 60.6875 115.75 C63.84591507 120.18885361 67.74301928 121.77842596 73 123 C75.23769013 122.67711578 75.23769013 122.67711578 77 122 C76.37351562 121.39671875 75.74703125 120.7934375 75.1015625 120.171875 C74.28429687 119.37265625 73.46703125 118.5734375 72.625 117.75 C71.81289062 116.96109375 71.00078125 116.1721875 70.1640625 115.359375 C67.13208279 112.05375091 66.11129947 110.02024513 65.625 105.5625 C66.06121638 101.41844436 67.09130272 99.90869728 70 97 C73.30338795 95.34830603 76.45811061 95.22812955 80 96 C83.00330932 98.00587999 85.44777127 100.45865497 88 103 C89.65651812 104.34592097 91.31806068 105.6859849 93 107 C92.7321679 100.97377769 92.14253112 96.68760101 88 92 C84.01545049 88.98257416 80.00212835 87.29424284 75 87 C73.31139113 87.24239708 71.62395425 87.49304025 69.9375 87.75 C67.3203125 88.0625 67.3203125 88.0625 65 88 C62.3125 85.75 62.3125 85.75 60 83 C58.22587385 82.06686578 58.22587385 82.06686578 56.3125 81.375 C53 80 53 80 51 77 C50.875 74.3125 50.875 74.3125 51 72 C50.401875 71.896875 49.80375 71.79375 49.1875 71.6875 C46.63683235 70.8858616 45.63308005 70.09967436 44 68 C43.3125 65.8125 43.3125 65.8125 43 64 C41.783125 63.87625 40.56625 63.7525 39.3125 63.625 C35.93520941 63.21108694 33.10243305 62.45426549 30 61 C28.93220793 63.16462239 28.93220793 63.16462239 29 66 C31.02639057 68.40161235 32.95153496 70.34054988 35.28125 72.41015625 C36.61165609 73.65976581 37.94105155 74.91045204 39.26953125 76.16210938 C41.3775207 78.11546719 43.49392597 80.05703504 45.63037109 81.97924805 C57.54695684 92.76956267 57.54695684 92.76956267 58.71875 98.53857422 C58.42355403 102.39976058 57.73012194 105.53975613 56 109 C54.02 108.505 54.02 108.505 52 108 C52 104.37 52 100.74 52 97 C50.02 96.01 50.02 96.01 48 95 C46.515 95.495 46.515 95.495 45 96 C43.43606629 95.89444142 41.87353456 95.76713501 40.3125 95.625 C36.01847934 95.57499685 33.97799072 96.2888463 30.75 99.125 C29.48542474 100.40240056 28.23480703 101.69380156 27 103 C26.40832031 103.51304688 25.81664062 104.02609375 25.20703125 104.5546875 C22.32497697 107.08760931 21.05627248 108.40094744 20.69140625 112.28515625 C19.7937251 117.10829057 17.81746403 119.1158973 14.375 122.4375 C13.86582031 122.97826172 13.35664062 123.51902344 12.83203125 124.07617188 C10.10270428 126.78155738 8.41637099 127.90380394 4.6015625 128.78515625 C-0.66559605 127.63689284 -3.25132305 124.73632139 -7 121 C-8.27979736 119.79537109 -8.27979736 119.79537109 -9.58544922 118.56640625 C-12.40237262 115.90977933 -15.17193757 113.20998287 -17.9375 110.5 C-18.41743408 110.04318848 -18.89736816 109.58637695 -19.3918457 109.11572266 C-20.80551356 107.76912228 -22.19798898 106.40038465 -23.58984375 105.03125 C-24.41347412 104.23267578 -25.23710449 103.43410156 -26.08569336 102.61132812 C-28.46462965 99.36619325 -28.82005166 96.98431958 -29 93 C-27.8125 90.77734375 -27.8125 90.77734375 -26 88.9375 C-25.02933594 87.94556641 -25.02933594 87.94556641 -24.0390625 86.93359375 C-23.36617187 86.29550781 -22.69328125 85.65742187 -22 85 C-21.38898437 84.39285156 -20.77796875 83.78570312 -20.1484375 83.16015625 C-16.85947205 80.0812789 -16.85947205 80.0812789 -15 79 C-14.20980469 79.04253906 -13.41960938 79.08507812 -12.60546875 79.12890625 C-7.85300604 78.89377691 -5.41040312 74.94066329 -2.3125 71.64453125 C2.93257844 65.64635877 4.49607472 60.71947241 5.3125 52.76953125 C5.2052586 49.91501155 5.2052586 49.91501155 3.41796875 47.63671875 C0.17052173 45.43852763 -1.80940022 45.72695447 -5.6875 46 C-13.00736337 46.19002761 -18.2935185 45.37826176 -23.80859375 40.3515625 C-28.59599385 35.09345879 -30.28294826 30.54124644 -30.25 23.375 C-30.25515625 22.24835937 -30.2603125 21.12171875 -30.265625 19.9609375 C-30 17 -30 17 -28 14 C-25.7109375 13.47265625 -25.7109375 13.47265625 -23 14 C-20.53146667 16.21002911 -18.43293848 18.49686232 -16.28125 21.00195312 C-13.62487349 23.90499317 -12.08794921 24.97887405 -8.2109375 25.91015625 C-6.62152344 25.95462891 -6.62152344 25.95462891 -5 26 C-3.64381501 24.87465895 -3.64381501 24.87465895 -3.9375 21.9375 C-4.75334918 16.51713216 -9.11399775 13.47774521 -13 10 C-15.95324971 7.31946028 -15.95324971 7.31946028 -16.375 4.4375 C-16.25125 3.633125 -16.1275 2.82875 -16 2 C-11.09528175 -1.26981217 -5.73117259 -0.53644862 0 0 Z M-9 4 C-9.33093807 7.04815458 -9.33093807 7.04815458 -7.3203125 8.90234375 C-6.59585937 9.57394531 -5.87140625 10.24554688 -5.125 10.9375 C-1.18487017 14.60224441 0.75029297 17.0380162 1.4375 22.4375 C1 26 1 26 -1.0625 28.9375 C-4.74684866 31.5243831 -6.57941605 31.63151199 -11 31 C-16.30632353 28.82304676 -20.09707513 24.07724905 -24 20 C-24.66 20.33 -25.32 20.66 -26 21 C-25.97087321 27.29138608 -24.68002393 31.27360747 -20.86328125 36.2734375 C-17.19938803 39.6684916 -14.12957983 40.96583932 -9.125 41.1171875 C-7.05273216 41.01831976 -4.98971626 40.8741688 -2.921875 40.70703125 C1.12891067 40.52922959 3.43476141 40.95524586 6.5 43.5078125 C7.7375 44.74144531 7.7375 44.74144531 9 46 C11.31 43.69 13.62 41.38 16 39 C15.175 38.17242187 14.35 37.34484375 13.5 36.4921875 C10.48152544 32.86789234 10.59554031 29.66483169 11 25.125 C11.24519563 19.41981156 11.18386503 15.1084364 7.546875 10.48046875 C2.54391651 5.69228373 -2.19181493 4.47776737 -9 4 Z M34 36 C35.39332574 39.36720387 36.9789286 40.9859524 40 43 C42.19994338 41.14439558 44.24725615 39.29039533 46 37 C45.94162863 34.37328813 45.88893674 32.88893674 44 31 C38.95376775 30.15896129 37.21011779 32.33129396 34 36 Z M25 37 C15.74617538 44.93359601 10.04543274 50.23454305 8.54296875 62.65234375 C7.7301879 67.66351774 5.49185356 70.46169162 2 74 C1.28457031 74.74378906 0.56914062 75.48757812 -0.16796875 76.25390625 C-2.08283116 78.20266003 -4.02364442 80.11393477 -6 82 C-5.36771484 82.67095703 -5.36771484 82.67095703 -4.72265625 83.35546875 C0.71880492 89.3602812 0.71880492 89.3602812 1 94 C-3.04161955 92.65515286 -5.38678154 90.9494838 -8.3125 87.875 C-9.00988281 87.15054688 -9.70726562 86.42609375 -10.42578125 85.6796875 C-11.20501953 84.84824219 -11.20501953 84.84824219 -12 84 C-15.34820898 85.46625856 -17.69266359 87.33658447 -20.3125 89.875 C-21.38951172 90.89207031 -21.38951172 90.89207031 -22.48828125 91.9296875 C-24.23221343 93.83240295 -24.23221343 93.83240295 -23.80175781 95.90161133 C-22.83246611 98.43847558 -21.61611128 99.74142105 -19.68359375 101.64453125 C-18.65975586 102.66063477 -18.65975586 102.66063477 -17.61523438 103.69726562 C-16.89658203 104.39529297 -16.17792969 105.09332031 -15.4375 105.8125 C-14.74591797 106.49892578 -14.05433594 107.18535156 -13.34179688 107.89257812 C-7.51652267 113.63098897 -1.54460059 119.09154956 5 124 C8.63 120.37 12.26 116.74 16 113 C13.81147059 109.35245098 12.32724056 107.0522752 9.4375 104.1875 C8.83808594 103.58292969 8.23867188 102.97835937 7.62109375 102.35546875 C6.09646541 100.78618123 6.09646541 100.78618123 4 101 C4 99.35 4 97.7 4 96 C9.32697239 97.45281065 12.36402802 101.08111378 16 105 C19.87321093 103.42369323 22.24735163 100.92252331 25.125 97.9375 C29.90066548 92.9988667 31.76473341 91.90830261 38.625 91.4375 C39.81351563 91.35371094 41.00203125 91.26992187 42.2265625 91.18359375 C43.14179687 91.12300781 44.05703125 91.06242187 45 91 C42.69933053 85.78841359 38.69038979 82.20404858 34.75 78.1875 C33.99847656 77.38634766 33.24695312 76.58519531 32.47265625 75.75976562 C30.39291941 73.64191843 28.42826772 71.70820447 26 70 C22.55736325 69.76143381 22.55736325 69.76143381 20 71 C23 65 23 65 24.1875 63 C25.91597939 58.7452815 25.02335601 54.34926305 24 50 C27.53647899 51.0716603 29.73092845 52.57361097 32.375 55.0625 C35.7569239 58.09661116 38.37824434 58.90937734 43 59 C43.99 58.505 43.99 58.505 45 58 C43.51676583 52.89001904 40.39535106 49.97996951 36.6875 46.375 C35.83381836 45.51648438 35.83381836 45.51648438 34.96289062 44.640625 C31.85368826 41.57068926 28.89754135 39.06211381 25 37 Z M46.3125 43 C45.37857422 43.8353125 45.37857422 43.8353125 44.42578125 44.6875 C43.95527344 45.120625 43.48476562 45.55375 43 46 C45.475 49.465 45.475 49.465 48 53 C49.15224028 52.07038578 50.29659176 51.1309875 51.4375 50.1875 C52.07558594 49.66542969 52.71367188 49.14335938 53.37109375 48.60546875 C55.2548275 46.99165589 55.2548275 46.99165589 56 44 C54.83333333 41.75 54.83333333 41.75 53 40 C49.41087588 40 48.89142971 40.66436554 46.3125 43 Z M52.125 56.1875 C51.32320313 56.96480469 50.52140625 57.74210937 49.6953125 58.54296875 C47.70767902 60.87999183 47.70767902 60.87999183 48.1796875 63.73828125 C48.79682891 65.93804209 48.79682891 65.93804209 50 67 C53.16361113 67.3988198 54.57889936 67.28955262 57.23828125 65.4609375 C61.6517321 61.20732128 61.6517321 61.20732128 63.5625 55.5625 C63.25864751 53.07896294 63.25864751 53.07896294 62 52 C57.24168179 51.31671209 55.4210026 52.87528756 52.125 56.1875 Z M68 61 C66.00759843 62.7215897 64.02309855 64.45070501 62.05078125 66.1953125 C60.53431501 67.52980279 58.99243665 68.83554034 57.4375 70.125 C55.68433514 71.97308129 55.68433514 71.97308129 56.25 74.75 C56.4975 75.4925 56.745 76.235 57 77 C61.92784505 76.582687 63.9777145 74.45014073 67.3125 70.9375 C68.19550781 70.01839844 69.07851562 69.09929687 69.98828125 68.15234375 C70.65214844 67.44207031 71.31601563 66.73179688 72 66 C70.6910428 62.87802522 70.6910428 62.87802522 68 61 Z " fill="#FFFFFF" transform="translate(30,0)"/>
</svg>
